<svg height='100px' width='100px'  fill="#27223a" xmlns="http://www.w3.org/2000/svg" data-name="Layer 1" viewBox="0 0 128 128" x="0px" y="0px"><title>Modern Business 05 solid 4k</title><path d="M1.23,65.35c4.24,1.76,8.37,3.17,12.37,4.54,3.56,1.22,7.23,2.49,10.94,3.99l10.07,7.01-2.34,3.3a7.04819,7.04819,0,0,0,1.35,9.51l.91.71a6.399,6.399,0,0,0,3.96,1.38,7.7237,7.7237,0,0,0,.95-.07c.11-.02.22-.05.33-.07a6.84271,6.84271,0,0,0,2.47,4.1l1.22.95a6.43113,6.43113,0,0,0,3.96,1.37,6.54674,6.54674,0,0,0,.89-.06,6.92371,6.92371,0,0,0,2.55,4.47,6.43105,6.43105,0,0,0,3.96,1.37,6.07668,6.07668,0,0,0,.95-.07,6.27964,6.27964,0,0,0,2.08-.68,6.62934,6.62934,0,0,0,2.08,2.77l.96.75A6.33924,6.33924,0,0,0,64.85,112a6.16675,6.16675,0,0,0,.95-.07,6.48257,6.48257,0,0,0,4.4-2.73l2.03-2.88.86.59A6.02854,6.02854,0,0,0,76.54,108a6.38813,6.38813,0,0,0,1.22-.12,6.03848,6.03848,0,0,0,3.92-2.75,6.22369,6.22369,0,0,0,.9-2.45l2.26,1.51a6.03876,6.03876,0,0,0,3.44,1.08,6.38259,6.38259,0,0,0,1.22-.12,6.1031,6.1031,0,0,0,3.93-2.74,6.94974,6.94974,0,0,0,.93-2.46l.07.06a6.039,6.039,0,0,0,3.44,1.08,6.38322,6.38322,0,0,0,1.22-.12,6.05826,6.05826,0,0,0,3.93-2.75,6.50134,6.50134,0,0,0-1.57-8.57,6.30648,6.30648,0,0,0,1.57-1.68,6.51651,6.51651,0,0,0-1.49-8.52l1.7-2.25,23.91-16.56a1.99732,1.99732,0,0,0-2.28-3.28l-12.23,8.46L97.73,39.74,127.05,21.7a1.99813,1.99813,0,0,0-2.1-3.4L94.39,37.1a1.80474,1.80474,0,0,0-.38.16,1.87493,1.87493,0,0,0-.41.31995l-9.69,5.96L65.1,40.37a18.966,18.966,0,0,0-11.97,1.42,2.01871,2.01871,0,0,0-.48-.26l-8.38-2.9a1.94748,1.94748,0,0,0-.61-.44C37.68,35.41,30.74,31.42,24.03,27.56,16.81,23.41,9.34,19.11,2.82,16.18a1.99621,1.99621,0,1,0-1.64,3.64c6.34,2.86,13.72,7.1,20.86,11.21,2.13,1.23,4.29,2.46,6.44,3.68L12.82,65.39C9.53,64.26,6.17,63.07,2.77,61.65a2.00386,2.00386,0,0,0-1.54,3.7Zm102.76984-.35046a2,2,0,1,1-1.99994,2A2,2,0,0,1,103.99982,64.99951ZM40.8894,90.23608l-.00378.006-.30969.43835A2.55575,2.55575,0,0,1,38.85626,91.76a2.44136,2.44136,0,0,1-1.86377-.501l-.90576-.70752a3.03332,3.03332,0,0,1-.54883-4.04974l6.6391-9.3974a2.5514,2.5514,0,0,1,1.71875-1.07861,2.43436,2.43436,0,0,1,1.86426.50049l.90527.707a3.03461,3.03461,0,0,1,.55048,4.04822ZM49.509,96.96753a2.55575,2.55575,0,0,1-1.71967,1.07953,2.43671,2.43671,0,0,1-1.86377-.501l-1.21973-.95258a3.03405,3.03405,0,0,1-.55048-4.04773l6.32629-8.95465.00378-.006.30969-.43835a2.55588,2.55588,0,0,1,1.71973-1.07953,2.44616,2.44616,0,0,1,1.86377.501l1.21973.95258a3.034,3.034,0,0,1,.54932,4.0498Zm9.06586,3.39545c-.057.08069-.10419.16565-.15729.248l-1.50916,2.13623a2.55574,2.55574,0,0,1-1.71973,1.07959,2.43287,2.43287,0,0,1-1.86377-.501,3.03367,3.03367,0,0,1-.54932-4.05029l6.6391-9.39734a2.55378,2.55378,0,0,1,1.71875-1.0791,2.5045,2.5045,0,0,1,.356-.02588,2.43843,2.43843,0,0,1,1.50781.52686,3.02734,3.02734,0,0,1,.621,3.924ZM72.46246,99.0705l-5.52734,7.82367a2.55353,2.55353,0,0,1-1.71869,1.0791,2.43441,2.43441,0,0,1-1.86426-.501l-.96143-.751a3.02677,3.02677,0,0,1-.62079-3.92371L66.814,95.658c.05682-.08044.10382-.1651.15674-.24725l.39795-.56329a2.55378,2.55378,0,0,1,1.71875-1.0791,2.5045,2.5045,0,0,1,.356-.02588,2.43843,2.43843,0,0,1,1.50781.52686l.9624.75146A3.03333,3.03333,0,0,1,72.46246,99.0705Zm5.8349,3.93262a2.08591,2.08591,0,0,1-1.34766.95508,2.04169,2.04169,0,0,1-1.58246-.335l-.82251-.56824,1.18433-1.67639a6.87116,6.87116,0,0,0,1.04144-2.27478l.86768.59021A2.49728,2.49728,0,0,1,78.29736,103.00311ZM64.257,44.28c.03906.00879.07861.0166.11816.02344l19.09607,3.22308L99.60388,75.36078,98.14,77.29968,69.086,58.22809c-2.84369-2.145-5.456-3.022-7.75336-2.61035a5.47846,5.47846,0,0,0-3.44971,2.083l-5.32172,6.67084c-2.20215,2.30664-4.19135,3.46484-5.77191,3.34131a3.89754,3.89754,0,0,1-2.77637-1.90479,25.864,25.864,0,0,0,2.2876-5.20941l3.08588-9.433C53.57977,41.99188,63.82629,44.1828,64.257,44.28Zm-21.16248-1.8252,6.09961,2.11035a16.29736,16.29736,0,0,0-3.499,5.05609,1.99817,1.99817,0,0,0-.07617.19678l-3.13477,9.58295a22.12427,22.12427,0,0,1-1.894,4.33685,4.00343,4.00343,0,0,0,.10742,4.34521,7.84064,7.84064,0,0,0,5.78613,3.6181c2.86957.22314,5.91156-1.33984,9.03851-4.63812.03906-.0415.07617-.08447.11182-.12891l5.40912-6.7807a1.97037,1.97037,0,0,0,.124-.17383,1.67025,1.67025,0,0,1,.87109-.42432c.6582-.11914,2.144-.02783,4.68457,1.90082.03613.02783.07367.0542.11176.0791L97.51062,81.67126a1.98658,1.98658,0,0,0,.56866.25226l.89325.60419a2.49139,2.49139,0,0,1,.65869,3.30707,2.089,2.089,0,0,1-1.34912.9541,1.99271,1.99271,0,0,1-1.07446-.0835L77.669,73.20551l-.0274-.019-.00067-.00037-.00519-.00354a1.96691,1.96691,0,0,0-.2002-.1106c-.05042-.02686-.09857-.06085-.15039-.08307a1.97948,1.97948,0,0,0-.34045-.10785c-.01111-.00256-.02173-.008-.0329-.01031a1.99557,1.99557,0,0,0-.747-.01294l-.01965.00171a2.0026,2.0026,0,0,0-.29163.0816c-.02594.00879-.05328.01245-.07886.0224a2.01817,2.01817,0,0,0-.2157.1084c-.04315.023-.08887.03979-.13037.0661-.05127.03247-.09625.0755-.14478.11285a1.95669,1.95669,0,0,0-.16559.13c-.037.03546-.067.08-.10156.11865a1.96516,1.96516,0,0,0-.15918.186l-.002.00366-.00134.0014c-.03174.0459-.05127.095-.07825.14166a2.03731,2.03731,0,0,0-.11658.21124c-.022.05151-.03265.10547-.05011.15808a2.0035,2.0035,0,0,0-.06781.21655c-.01227.05884-.01288.11841-.01978.17767a2.01767,2.01767,0,0,0-.02222.20624c-.00067.06024.01.11945.01471.17938a2.00951,2.00951,0,0,0,.01733.20306c.01019.056.03113.10938.046.16437a2.01782,2.01782,0,0,0,.05817.20508c.02.05139.05017.09845.0744.14807a1.97977,1.97977,0,0,0,.09979.197c.02936.04639.0686.08685.102.131a1.95807,1.95807,0,0,0,.1402.17865c.03839.04016.08618.07275.12836.11a1.96283,1.96283,0,0,0,.17615.151L94.42957,89.74689a6.23859,6.23859,0,0,0,.85455.49133L98.972,92.78638a2.46046,2.46046,0,0,1,.65918,3.30713,2.08783,2.08783,0,0,1-1.34912.9541,2.03006,2.03006,0,0,1-1.57959-.3335l-4.32935-2.99084a5.33539,5.33539,0,0,0-.51483-.4071,2.00517,2.00517,0,0,0-.3598-.19708L71.82428,79.52771a2,2,0,1,0-2.27344,3.291L89.80847,96.81317a3.05475,3.05475,0,0,1,.232,3.46143,2.04118,2.04118,0,0,1-2.95605.60205L75.73523,93.30438a6.66176,6.66176,0,0,0-1.35919-1.436l-.9624-.75146a6.40265,6.40265,0,0,0-4.90967-1.3056c-.213.03137-.42236.07428-.6286.12555a6.827,6.827,0,0,0-2.41577-3.78912,6.39507,6.39507,0,0,0-4.851-1.31128,6.87591,6.87591,0,0,0-2.54791-4.468L56.841,79.41589a6.3862,6.3862,0,0,0-4.90967-1.30566c-.11072.0163-.21783.04352-.32678.06525A6.84289,6.84289,0,0,0,49.12714,74.081l-.90521-.707a6.40111,6.40111,0,0,0-4.90967-1.30566A6.51752,6.51752,0,0,0,38.91,74.79681l-1.99432,2.82294-8.65332-6.02759a1.98672,1.98672,0,0,0-.15179-.25519ZM22.41,62a2.00039,2.00039,0,1,1-2.04,2A2.01474,2.01474,0,0,1,22.41,62Z"></path></svg>