
<svg xmlns="http://www.w3.org/2000/svg" fill="#60245e" viewBox="0 0 79.38 79.38">
  <ellipse cx="39.69" cy="39.69" fill="#f2cc59" rx="38" ry="38" />
  <path d="M39.69 79.38A39.69 39.69 0 1 0 0 39.69a39.74 39.74 0 0 0 39.69 39.69Zm0-73.13A33.44 33.44 0 1 1 6.25 39.69 33.48 33.48 0 0 1 39.69 6.25Z" />
  <path d="M20 37.19a3.13 3.13 0 0 0 3.12-3.13 2.51 2.51 0 0 1 5 0 3.13 3.13 0 1 0 6.25 0 8.76 8.76 0 0 0-17.51 0A3.13 3.13 0 0 0 20 37.19Zm28.13 0a3.13 3.13 0 0 0 3.12-3.13 2.5 2.5 0 0 1 5 0 3.13 3.13 0 1 0 6.25 0 8.75 8.75 0 0 0-17.5 0 3.12 3.12 0 0 0 3.13 3.13ZM23 47.34a3.13 3.13 0 0 0-6 1.54c.15.56 3.63 13.62 22.73 13.62s22.54-13.06 22.68-13.62a3.12 3.12 0 0 0-6-1.55c-.11.36-2.63 8.92-16.67 8.92S23.14 47.76 23 47.34Z" />
</svg>
