<svg height='100px' width='100px'  fill="#60235e" xmlns="http://www.w3.org/2000/svg" xmlns:xlink="http://www.w3.org/1999/xlink" version="1.1" x="0px" y="0px" viewBox="0 0 16 16" style="enable-background:new 0 0 16 16;" xml:space="preserve"><path d="M8,14.35c3.501,0,6.35-2.849,6.35-6.35S11.501,1.65,8,1.65S1.65,4.499,1.65,8S4.499,14.35,8,14.35z M8,2.65  c2.95,0,5.35,2.4,5.35,5.35S10.95,13.35,8,13.35S2.65,10.95,2.65,8S5.05,2.65,8,2.65z"></path><path d="M4.85,7.6c0.276,0,0.5-0.224,0.5-0.5c0-0.221,0.18-0.4,0.4-0.4s0.4,0.179,0.4,0.4c0,0.276,0.224,0.5,0.5,0.5  s0.5-0.224,0.5-0.5c0-0.772-0.628-1.4-1.4-1.4s-1.4,0.628-1.4,1.4C4.35,7.376,4.573,7.6,4.85,7.6z"></path><path d="M9.35,7.6c0.276,0,0.5-0.224,0.5-0.5c0-0.221,0.18-0.4,0.4-0.4s0.4,0.179,0.4,0.4c0,0.276,0.224,0.5,0.5,0.5  s0.5-0.224,0.5-0.5c0-0.772-0.628-1.4-1.4-1.4s-1.4,0.628-1.4,1.4C8.85,7.376,9.073,7.6,9.35,7.6z"></path><path d="M5.333,9.224C5.264,8.959,4.991,8.797,4.729,8.865C4.46,8.932,4.298,9.204,4.364,9.471C4.387,9.561,4.944,11.65,8,11.65  s3.613-2.089,3.636-2.179c0.066-0.265-0.094-0.532-0.358-0.602c-0.27-0.069-0.537,0.088-0.61,0.354  C10.65,9.281,10.246,10.65,8,10.65C5.763,10.65,5.353,9.292,5.333,9.224z"></path></svg>