<svg height='100px' width='100px'  fill="#60245e" xmlns="http://www.w3.org/2000/svg" xmlns:xlink="http://www.w3.org/1999/xlink" xmlns:a="http://ns.adobe.com/AdobeSVGViewerExtensions/3.0/" version="1.1" x="0px" y="0px" viewBox="-52.965 -55.577 1024 1024" enable-background="new -52.965 -55.577 1024 1024" xml:space="preserve"><g display="none"><g display="inline"><path d="M829.404,497.164c0,44.917,0,89.833,0,134.75c0,29.998,0,59.996,0,89.993c0,15.967,0.967,32.389-0.686,48.307    c-0.101,0.913-0.213,1.825-0.335,2.736c0.533-3.853,1.066-7.705,1.6-11.558c-1.386,9.841-3.975,19.38-7.765,28.566    c1.479-3.539,2.96-7.078,4.439-10.618c-3.81,8.934-8.658,17.289-14.517,25.035c2.326-3.052,4.651-6.103,6.977-9.154    c-5.906,7.626-12.654,14.451-20.211,20.445c3.069-2.389,6.14-4.776,9.209-7.164c-8.025,6.216-16.733,11.337-26.071,15.319    c3.713-1.55,7.426-3.1,11.139-4.649c-9.188,3.791-18.726,6.379-28.567,7.766c3.991-0.515,7.981-1.029,11.972-1.544    c-10.507,1.35-21.137,1.021-31.707,1.021c-17.263,0-34.524,0-51.786,0c-56.993,0-113.985,0-170.978,0    c-65.02,0-130.039,0-195.058,0c-46.729,0-93.458,0-140.186,0c-13.372,0-27.101,0.687-40.388-1.021    c3.853,0.533,7.705,1.066,11.558,1.6c-9.842-1.386-19.38-3.975-28.567-7.765c3.54,1.479,7.079,2.96,10.618,4.439    c-8.933-3.81-17.289-8.658-25.034-14.517c3.051,2.325,6.103,4.65,9.154,6.976c-7.625-5.906-14.451-12.653-20.445-20.211    c2.388,3.07,4.776,6.14,7.164,9.21c-6.216-8.026-11.337-16.733-15.319-26.071c1.55,3.713,3.099,7.426,4.649,11.139    c-3.791-9.188-6.379-18.726-7.765-28.567c0.515,3.99,1.029,7.981,1.543,11.972c-1.35-10.507-1.02-21.137-1.02-31.708    c0-17.262,0-34.523,0-51.785c0-56.993,0-113.985,0-170.978c0-65.02,0-130.039,0-195.059c0-46.729,0-93.458,0-140.186    c0-13.372-0.687-27.101,1.02-40.388c-0.533,3.853-1.066,7.705-1.6,11.558c1.386-9.842,3.974-19.38,7.765-28.567    c-1.48,3.54-2.959,7.079-4.439,10.618c3.81-8.933,8.659-17.289,14.516-25.034c-2.325,3.051-4.65,6.103-6.976,9.154    c5.906-7.625,12.654-14.451,20.211-20.445c-3.07,2.388-6.14,4.776-9.209,7.164c8.026-6.216,16.733-11.337,26.071-15.319    c-3.713,1.55-7.426,3.099-11.139,4.649c9.188-3.791,18.726-6.379,28.567-7.765c-3.99,0.515-7.98,1.029-11.971,1.543    c16.335-2.099,33.367-1.02,49.789-1.02c29.851,0,59.703,0,89.554,0c44.68,0,89.36,0,134.041,0    c24.515,0,45.171-20.05,45.334-44.686c0.162-24.392-20.169-45.334-44.686-45.334c-45.012,0-90.025,0-135.038,0    c-29.753,0-59.506,0-89.259,0c-20.62,0-40.556-0.323-61.058,2.563C105.138,6.711,78.985,21.236,56.475,39.95    c-22.086,18.361-37.396,44.543-46.343,71.529C3.937,130.16,3,149.83,3,169.318c0,40.278,0,80.557,0,120.834    c0,63.569,0,127.139,0,190.708c0,60.542,0,121.085,0,181.628c0,31.198,0,62.397,0,93.596c0,43.965,17.575,87.13,49.884,117.287    c30.09,28.087,69.696,43.063,110.732,43.063c32.67,0,65.34,0,98.011,0c61.093,0,122.186,0,183.279,0c63.199,0,126.397,0,189.595,0    c38.986,0,77.973,0,116.959,0c22.077,0,44.408-1.825,65.017-10.328c8.269-3.411,16.411-6.688,24.164-11.129    c7.941-4.549,15.109-10.335,22.256-16.003c11.423-9.061,20.115-19.996,28.758-31.701c17.353-23.502,25.622-53.131,27.556-81.94    c1.016-15.128,0.213-30.533,0.213-45.675c0-30.364,0-60.729,0-91.092c0-43.585,0-87.169,0-130.754    c0-24.515-20.05-45.171-44.686-45.334C850.346,452.316,829.404,472.647,829.404,497.164L829.404,497.164z"></path></g></g><g display="none"><g display="inline"><path d="M585.373,90.031c42.477,0.039,84.953,0.078,127.43,0.117c52.083,0.048,104.166,0.096,156.249,0.144    c1.679,0.002,3.358,0.003,5.038,0.005c24.515,0.022,45.171-20.067,45.334-44.686c0.162-24.409-20.169-45.312-44.686-45.334    c-42.477-0.039-84.953-0.078-127.43-0.117c-52.083-0.048-104.166-0.096-156.249-0.144c-1.679-0.002-3.358-0.003-5.038-0.005    c-24.515-0.022-45.171,20.067-45.334,44.686C540.525,69.105,560.856,90.009,585.373,90.031L585.373,90.031z"></path></g></g><g display="none"><g display="inline"><path d="M919.157,334.064c0.04-42.477,0.079-84.953,0.118-127.43c0.048-52.083,0.096-104.167,0.145-156.25    c0.001-1.68,0.003-3.359,0.004-5.039c0.023-24.515-20.066-45.171-44.686-45.334c-24.409-0.162-45.312,20.17-45.334,44.686    c-0.04,42.477-0.079,84.953-0.118,127.43c-0.048,52.083-0.096,104.167-0.145,156.25c-0.001,1.68-0.003,3.359-0.004,5.039    c-0.023,24.515,20.066,45.171,44.686,45.334C898.232,378.912,919.134,358.58,919.157,334.064L919.157,334.064z"></path></g></g><g display="none"><g display="inline"><path d="M438.12,544.589c16.446-16.434,32.892-32.866,49.338-49.299c39.135-39.103,78.269-78.206,117.403-117.31    c46.52-46.481,93.038-92.963,139.558-139.445c38.599-38.568,77.197-77.136,115.797-115.704    c15.397-15.386,30.796-30.771,46.193-46.157c17.324-17.311,17.031-46.494-0.341-63.649c-17.513-17.292-46.291-17.003-63.649,0.341    c-16.446,16.433-32.892,32.865-49.338,49.298c-39.135,39.104-78.269,78.207-117.403,117.31    c-46.52,46.481-93.038,92.963-139.558,139.445c-38.599,38.568-77.198,77.136-115.796,115.704    c-15.398,15.386-30.796,30.771-46.194,46.156c-17.324,17.311-17.031,46.494,0.341,63.649    C391.982,562.222,420.761,561.933,438.12,544.589L438.12,544.589z"></path></g></g><g display="none"><g display="inline"><path d="M771.021,465.788c17.359-17.36,34.719-34.719,52.079-52.078c6.441-6.442,12.884-12.884,19.325-19.326    c18.411-18.411,34.208-40.485,44.839-64.296c12.379-27.724,19.586-55.811,21.295-86.237c1.468-26.135-2.293-53.468-10.335-78.356    c-17.884-55.35-56.511-103.12-107.782-130.962C740.475,7.399,681.702,0.331,626.544,13.628    c-41.43,9.988-78.529,32.84-108.469,62.779c-38.143,38.142-76.285,76.285-114.427,114.427    c-16.375,16.375-32.749,32.749-49.124,49.124c-28.146,28.146-49.242,60.945-61.237,99.061    c-14.162,45.001-13.143,96.721,3.066,141.025c4.728,12.922,10.266,25.726,17.029,37.73c6.829,12.121,15.354,23.115,24.065,33.927    c17.569,21.804,40.766,40.08,65.371,53.275c21.601,11.585,48.925,5.261,61.471-16.471c11.972-20.735,5.146-49.878-16.471-61.471    c-8.666-4.647-16.917-9.927-24.772-15.841c3.051,2.325,6.103,4.65,9.154,6.976c-12.782-9.816-24.224-21.146-34.135-33.854    c2.388,3.069,4.776,6.14,7.164,9.209c-9.78-12.746-17.843-26.626-24.052-41.444c1.55,3.713,3.1,7.426,4.649,11.139    c-6.127-14.944-10.269-30.547-12.379-46.56c0.514,3.99,1.029,7.981,1.543,11.971c-1.977-15.919-1.917-31.955,0.179-47.86    c-0.533,3.853-1.066,7.705-1.6,11.558c2.167-15.54,6.248-30.68,12.2-45.198c-1.479,3.54-2.959,7.079-4.439,10.619    c6.022-14.373,13.787-27.864,23.175-40.302c-2.325,3.051-4.65,6.103-6.976,9.154c11.498-14.983,25.603-27.953,38.931-41.281    c21.21-21.211,42.421-42.421,63.632-63.632c20.741-20.74,41.481-41.481,62.222-62.222c12.986-12.986,25.634-26.739,40.14-38.054    c-3.07,2.388-6.14,4.776-9.209,7.164c12.745-9.781,26.625-17.843,41.443-24.053c-3.713,1.55-7.426,3.1-11.139,4.649    c14.943-6.127,30.547-10.269,46.559-12.38c-3.99,0.515-7.98,1.029-11.971,1.543c15.92-1.977,31.955-1.917,47.859,0.18    c-3.852-0.533-7.704-1.066-11.557-1.6c15.54,2.167,30.68,6.248,45.198,12.2c-3.54-1.479-7.079-2.959-10.618-4.439    c14.372,6.023,27.863,13.787,40.302,23.176c-3.052-2.326-6.103-4.651-9.154-6.976c12.759,9.791,24.175,21.12,34.066,33.801    c-2.388-3.069-4.776-6.139-7.164-9.209c9.78,12.746,17.843,26.625,24.052,41.444c-1.549-3.713-3.099-7.426-4.648-11.139    c6.127,14.944,10.269,30.547,12.38,46.559c-0.515-3.99-1.029-7.981-1.544-11.971c1.978,15.919,1.917,31.956-0.179,47.86    c0.533-3.853,1.066-7.705,1.6-11.558c-2.168,15.541-6.248,30.68-12.201,45.198c1.48-3.539,2.96-7.079,4.439-10.618    c-6.022,14.373-13.786,27.864-23.175,40.302c2.325-3.051,4.65-6.103,6.976-9.154c-13.398,17.461-30.175,32.526-45.701,48.052    c-14.012,14.012-28.024,28.023-42.036,42.035c-17.317,17.317-17.037,46.489,0.342,63.649    C724.878,483.416,753.669,483.139,771.021,465.788L771.021,465.788z"></path></g></g><g display="none"><g display="inline"><path d="M160.437,450.66c-17.359,17.359-34.718,34.718-52.077,52.078c-6.442,6.441-12.884,12.883-19.326,19.325    c-18.411,18.411-34.208,40.484-44.839,64.296c-12.378,27.725-19.585,55.811-21.294,86.237    c-1.468,26.135,2.293,53.469,10.335,78.357c17.884,55.35,56.511,103.118,107.783,130.96    c49.967,27.134,108.74,34.202,163.897,20.904c41.429-9.987,78.531-32.839,108.469-62.778    c38.143-38.142,76.285-76.284,114.427-114.427c16.375-16.374,32.749-32.749,49.124-49.124    c28.146-28.146,49.241-60.944,61.236-99.06c14.162-45.002,13.143-96.722-3.065-141.026c-4.728-12.922-10.266-25.725-17.028-37.73    c-6.829-12.121-15.354-23.116-24.065-33.927c-17.568-21.804-40.767-40.08-65.372-53.274    c-21.601-11.583-48.924-5.261-61.471,16.471c-11.972,20.735-5.146,49.879,16.471,61.471c8.666,4.647,16.917,9.926,24.773,15.84    c-3.051-2.325-6.103-4.65-9.153-6.976c12.782,9.816,24.225,21.145,34.136,33.853c-2.388-3.07-4.775-6.14-7.164-9.209    c9.78,12.746,17.843,26.626,24.052,41.444c-1.55-3.713-3.099-7.426-4.648-11.139c6.127,14.944,10.269,30.547,12.38,46.559    c-0.515-3.99-1.029-7.98-1.544-11.971c1.978,15.919,1.917,31.955-0.18,47.859c0.533-3.853,1.066-7.705,1.6-11.558    c-2.167,15.541-6.248,30.681-12.2,45.198c1.479-3.539,2.96-7.079,4.439-10.618c-6.022,14.373-13.787,27.864-23.175,40.302    c2.325-3.052,4.65-6.103,6.976-9.154c-11.497,14.983-25.603,27.953-38.931,41.281c-21.211,21.211-42.421,42.422-63.632,63.633    c-20.741,20.74-41.481,41.48-62.222,62.222c-12.987,12.986-25.633,26.739-40.14,38.054c3.07-2.388,6.139-4.776,9.209-7.164    c-12.746,9.78-26.626,17.843-41.444,24.052c3.713-1.549,7.426-3.099,11.139-4.648c-14.944,6.127-30.547,10.269-46.559,12.38    c3.99-0.515,7.981-1.029,11.971-1.544c-15.919,1.978-31.955,1.917-47.859-0.179c3.852,0.533,7.705,1.066,11.557,1.6    c-15.54-2.168-30.68-6.248-45.198-12.201c3.539,1.48,7.079,2.96,10.618,4.439c-14.373-6.022-27.864-13.786-40.302-23.175    c3.051,2.325,6.103,4.65,9.154,6.976c-12.759-9.791-24.175-21.119-34.066-33.8c2.388,3.069,4.776,6.139,7.164,9.209    c-9.781-12.746-17.843-26.626-24.052-41.443c1.549,3.713,3.099,7.426,4.649,11.139c-6.127-14.944-10.27-30.547-12.38-46.56    c0.515,3.991,1.029,7.981,1.544,11.972c-1.978-15.92-1.917-31.956,0.179-47.86c-0.533,3.853-1.066,7.705-1.6,11.558    c2.167-15.54,6.248-30.681,12.2-45.198c-1.48,3.539-2.959,7.078-4.439,10.618c6.022-14.373,13.787-27.864,23.176-40.303    c-2.325,3.052-4.651,6.104-6.976,9.154c13.398-17.461,30.175-32.525,45.701-48.052c14.012-14.012,28.023-28.023,42.035-42.034    c17.317-17.317,17.037-46.489-0.341-63.649C206.579,433.031,177.788,433.308,160.437,450.66L160.437,450.66z"></path></g></g><g display="none"><g display="inline"><path d="M441.586,631.042c-34.938,34.938-69.875,69.875-104.813,104.813c-9.094,9.094-18.187,18.188-27.281,27.281    c-6.219,6.219-12.301,12.498-19.258,17.925c4.093-3.184,8.186-6.368,12.279-9.552c-7.561,5.742-15.705,10.502-24.423,14.263    c4.951-2.066,9.902-4.132,14.853-6.198c-9.417,3.923-19.209,6.569-29.318,7.937c5.321-0.686,10.641-1.372,15.962-2.058    c-10.054,1.234-20.128,1.173-30.166-0.186c5.137,0.711,10.273,1.422,15.41,2.133c-9.633-1.424-18.963-4.008-27.953-7.752    c4.719,1.973,9.438,3.946,14.158,5.919c-8.718-3.761-16.861-8.521-24.422-14.263c4.068,3.1,8.137,6.2,12.205,9.301    c-7.252-5.656-13.583-12.25-20.068-18.736c-9.632-9.632-19.265-19.265-28.897-28.896c-9.708-9.708-19.415-19.415-29.122-29.122    c-6.644-6.644-13.424-13.122-19.217-20.55c3.184,4.094,6.368,8.187,9.552,12.279c-5.742-7.562-10.502-15.705-14.263-24.423    c2.066,4.951,4.132,9.901,6.198,14.853c-3.922-9.417-6.569-19.209-7.937-29.318c0.686,5.321,1.372,10.642,2.058,15.962    c-1.235-10.054-1.173-20.128,0.185-30.166c-0.711,5.137-1.422,10.273-2.133,15.41c1.423-9.634,4.008-18.964,7.752-27.953    c-1.973,4.719-3.946,9.438-5.919,14.157c3.76-8.718,8.521-16.861,14.263-24.422c-3.1,4.068-6.201,8.137-9.301,12.205    c11.78-15.104,26.826-28.159,40.325-41.658c22.582-22.582,45.164-45.164,67.746-67.746c13.982-13.982,27.965-27.965,41.947-41.947    c23.09-23.09,22.716-61.985-0.455-84.865c-23.342-23.05-61.73-22.68-84.865,0.455c-34.938,34.938-69.875,69.875-104.813,104.813    c-12.543,12.543-25.324,24.891-37.622,37.676c-11.33,11.779-21.58,25.666-28.833,40.39c-7.118,14.45-13.224,29.868-15.786,45.85    c-1.61,10.042-3.176,20.269-3.425,30.476c-0.266,10.861,1.515,21.715,2.964,32.424c2.241,16.564,8.462,31.504,15.26,46.732    c13.459,30.151,40.327,53.107,63.309,76.09c11.019,11.019,22.038,22.038,33.057,33.057c6.96,6.96,13.748,14.242,21.358,20.502    c7.94,6.529,16.287,12.974,25.113,18.346c9.188,5.592,19.35,9.354,29.233,13.471c15.022,6.257,31.48,8.411,47.542,9.985    c16.174,1.586,33.024-0.737,48.814-3.87c16.026-3.18,31.853-9.96,46.12-17.676c23.676-12.804,42.055-33.039,60.851-51.836    c38.368-38.368,76.736-76.736,115.104-115.104c0.665-0.665,1.329-1.329,1.993-1.993c23.09-23.09,22.716-61.984-0.455-84.865    C503.11,607.537,464.721,607.907,441.586,631.042L441.586,631.042z"></path></g></g><g display="none"><g display="inline"><path d="M487.115,285.404c34.938-34.938,69.875-69.875,104.813-104.813c9.094-9.094,18.188-18.187,27.281-27.281    c6.219-6.219,12.3-12.499,19.258-17.925c-4.093,3.184-8.187,6.368-12.279,9.552c7.562-5.742,15.705-10.502,24.423-14.263    c-4.95,2.066-9.901,4.132-14.853,6.198c9.418-3.922,19.209-6.569,29.318-7.937c-5.32,0.686-10.641,1.372-15.962,2.058    c10.055-1.235,20.128-1.173,30.166,0.185c-5.137-0.711-10.273-1.422-15.41-2.133c9.634,1.423,18.964,4.008,27.953,7.752    c-4.719-1.973-9.438-3.946-14.157-5.919c8.718,3.76,16.861,8.521,24.422,14.263c-4.068-3.1-8.137-6.201-12.205-9.301    c7.252,5.656,13.583,12.25,20.068,18.736c9.633,9.633,19.266,19.265,28.897,28.898c9.708,9.707,19.415,19.415,29.122,29.122    c6.644,6.644,13.424,13.122,19.217,20.549c-3.184-4.093-6.368-8.186-9.552-12.279c5.742,7.561,10.503,15.704,14.263,24.422    c-2.065-4.951-4.132-9.901-6.198-14.852c3.923,9.417,6.569,19.209,7.938,29.318c-0.687-5.32-1.372-10.641-2.059-15.961    c1.235,10.054,1.174,20.127-0.184,30.166c0.711-5.137,1.422-10.273,2.133-15.41c-1.424,9.634-4.008,18.963-7.753,27.954    c1.973-4.719,3.946-9.438,5.919-14.158c-3.761,8.718-8.521,16.861-14.263,24.423c3.101-4.068,6.2-8.137,9.301-12.205    c-11.779,15.103-26.826,28.158-40.325,41.658c-22.582,22.582-45.164,45.164-67.745,67.746    c-13.982,13.982-27.965,27.965-41.947,41.947c-23.09,23.09-22.716,61.984,0.455,84.865c23.342,23.05,61.73,22.681,84.865-0.455    c34.938-34.938,69.875-69.875,104.812-104.813c12.543-12.543,25.324-24.891,37.622-37.676c11.33-11.78,21.58-25.666,28.833-40.39    c7.118-14.45,13.224-29.868,15.786-45.85c1.61-10.042,3.176-20.269,3.425-30.476c0.266-10.861-1.516-21.715-2.964-32.424    c-2.241-16.565-8.463-31.504-15.26-46.732c-13.459-30.151-40.327-53.108-63.31-76.09c-11.019-11.019-22.038-22.038-33.057-33.057    c-6.96-6.96-13.747-14.243-21.358-20.502c-7.94-6.53-16.287-12.974-25.112-18.346c-9.188-5.592-19.35-9.354-29.233-13.47    c-15.021-6.257-31.48-8.411-47.541-9.986c-16.175-1.586-33.023,0.737-48.814,3.87c-16.026,3.18-31.853,9.96-46.119,17.676    c-23.677,12.805-42.055,33.04-60.852,51.836c-38.368,38.368-76.737,76.736-115.105,115.104c-0.664,0.665-1.329,1.329-1.993,1.993    c-23.09,23.09-22.716,61.985,0.455,84.865C425.591,308.909,463.979,308.54,487.115,285.404L487.115,285.404z"></path></g></g><g display="none"><g display="inline"><path d="M399.211,606.113c27.2-26.964,54.399-53.928,81.598-80.892c43.69-43.312,87.38-86.623,131.069-129.934    c10.489-10.398,20.978-20.796,31.467-31.194c23.191-22.99,22.639-62.061-0.455-84.865c-23.417-23.124-61.631-22.579-84.865,0.455    c-27.199,26.964-54.399,53.928-81.599,80.892c-43.689,43.312-87.379,86.623-131.069,129.934    c-10.489,10.398-20.978,20.796-31.467,31.194c-23.191,22.99-22.639,62.061,0.455,84.865    C337.763,629.692,375.976,629.146,399.211,606.113L399.211,606.113z"></path></g></g><g><g><path d="M716.796,540.202c0,47.714,0,95.429,0,143.143c0,20.359,0,40.719,0,61.077c0,11.778,0.599,23.839-0.961,35.538    c0.533-3.853,1.066-7.705,1.6-11.558c-1.245,8.443-3.499,16.61-6.771,24.494c1.479-3.54,2.959-7.079,4.438-10.618    c-3.302,7.662-7.473,14.822-12.502,21.479c2.325-3.051,4.65-6.103,6.976-9.153c-5.083,6.546-10.866,12.405-17.345,17.574    c3.07-2.388,6.14-4.775,9.209-7.163c-6.936,5.386-14.443,9.826-22.509,13.303c3.713-1.55,7.426-3.1,11.139-4.649    c-8.309,3.448-16.933,5.764-25.85,6.952c3.99-0.515,7.98-1.029,11.971-1.544c-10.549,1.257-21.372,0.78-31.98,0.78    c-19.52,0-39.039,0-58.559,0c-60.807,0-121.613,0-182.419,0c-60.719,0-121.438,0-182.157,0c-19.411,0-38.821,0-58.232,0    c-10.931,0-22.072,0.486-32.927-0.961c3.853,0.533,7.705,1.066,11.557,1.6c-8.444-1.245-16.61-3.499-24.494-6.771    c3.54,1.479,7.079,2.959,10.618,4.438c-7.663-3.302-14.822-7.473-21.479-12.502c3.051,2.325,6.103,4.65,9.154,6.976    c-6.546-5.083-12.405-10.866-17.575-17.345c2.388,3.07,4.776,6.14,7.164,9.209c-5.387-6.936-9.827-14.443-13.303-22.509    c1.55,3.713,3.099,7.426,4.649,11.139c-3.448-8.309-5.763-16.933-6.952-25.85c0.514,3.99,1.029,7.98,1.543,11.971    c-1.257-10.549-0.78-21.372-0.78-31.98c0-19.52,0-39.039,0-58.559c0-60.807,0-121.613,0-182.419c0-60.72,0-121.438,0-182.158    c0-19.411,0-38.821,0-58.232c0-10.931-0.487-22.072,0.96-32.927c-0.533,3.853-1.066,7.705-1.6,11.558    c1.245-8.444,3.499-16.611,6.771-24.494c-1.48,3.539-2.959,7.079-4.439,10.618c3.302-7.663,7.473-14.823,12.503-21.479    c-2.325,3.051-4.651,6.103-6.976,9.154c5.083-6.546,10.866-12.406,17.345-17.575c-3.07,2.388-6.14,4.776-9.209,7.164    c6.937-5.386,14.444-9.827,22.51-13.303c-3.713,1.55-7.426,3.099-11.139,4.649c8.309-3.448,16.933-5.763,25.85-6.952    c-3.99,0.514-7.981,1.029-11.971,1.543c17.33-2.065,35.418-0.78,52.814-0.78c31.47,0,62.94,0,94.41,0c29.698,0,59.395,0,89.093,0    c24.515,0,45.171-20.05,45.334-44.686c0.162-24.392-20.169-45.334-44.686-45.334c-47.843,0-95.687,0-143.531,0    c-24.394,0-48.788,0-73.182,0c-12.452,0-24.592,0.979-36.963,3.156c-14.29,2.514-28.428,8.466-41.064,15.385    c-12.422,6.802-24.058,16.122-33.727,26.448C12.905,176.051,0,212.419,0,250.48c0,13.657,0,27.314,0,40.972    c0,55.5,0,111,0,166.501c0,63.971,0,127.942,0,191.913c0,37.511,0,75.021,0,112.531c0,9.944,1.183,19.625,2.504,29.533    c1.936,14.519,7.736,28.61,14.191,41.614c6.307,12.704,15.567,24.459,25.478,34.501c27.559,27.923,65.863,41.83,104.659,41.83    c37.51,0,75.021,0,112.531,0c63.971,0,127.942,0,191.914,0c55.5,0,111,0,166.5,0c13.657,0,27.314,0,40.972,0    c5.162,0,10.284-0.076,15.435-0.617c8.929-0.938,17.91-2.036,26.61-4.322c8.987-2.362,17.709-6.281,26.13-10.046    c12.999-5.812,24.813-14.965,35.246-24.479c20.751-18.923,36.193-46.658,41.437-74.215c2.321-12.201,3.211-24.192,3.211-36.494    c0-24.272,0-48.545,0-72.817c0-48.66,0-97.321,0-145.982c0-0.018,0-0.035,0-0.053c0-24.515-20.05-45.171-44.686-45.334    C737.739,495.354,716.796,515.686,716.796,540.202L716.796,540.202z"></path></g></g><g><g><path d="M500.176,96.59c37.308,0.034,74.614,0.068,111.922,0.103c62.631,0.058,125.262,0.115,187.893,0.173    c19.327,0.018,38.654,0.035,57.981,0.053c24.515,0.022,45.171-20.067,45.334-44.686c0.162-24.409-20.169-45.312-44.686-45.334    c-37.308-0.034-74.615-0.068-111.922-0.103C684.068,6.738,621.437,6.68,558.806,6.623c-19.327-0.018-38.654-0.035-57.981-0.053    c-24.515-0.022-45.171,20.067-45.334,44.686C455.329,75.664,475.66,96.567,500.176,96.59L500.176,96.59z"></path></g></g><g><g><path d="M902.976,409.703c0.035-37.308,0.069-74.615,0.104-111.923c0.058-62.631,0.115-125.263,0.174-187.895    c0.018-19.327,0.035-38.654,0.053-57.981c0.023-24.515-20.066-45.171-44.686-45.334c-24.409-0.162-45.312,20.17-45.334,44.686    c-0.035,37.308-0.069,74.615-0.104,111.923c-0.058,62.631-0.115,125.263-0.174,187.895c-0.018,19.327-0.035,38.654-0.053,57.981    c-0.023,24.515,20.066,45.171,44.686,45.334C882.051,454.551,902.954,434.219,902.976,409.703L902.976,409.703z"></path></g></g><g><g><path d="M384.313,588.747c15.395-15.381,30.789-30.762,46.184-46.142c37.446-37.411,74.892-74.823,112.338-112.235    c46.391-46.349,92.782-92.697,139.173-139.045c42.229-42.191,84.46-84.382,126.689-126.573    c24.962-24.939,49.925-49.878,74.887-74.817c2.235-2.234,4.472-4.467,6.707-6.701c17.325-17.31,17.03-46.495-0.341-63.649    c-17.513-17.293-46.29-17.002-63.649,0.341c-15.395,15.38-30.789,30.761-46.184,46.141    c-37.446,37.412-74.892,74.823-112.338,112.235c-46.392,46.349-92.782,92.697-139.174,139.045    c-42.229,42.191-84.459,84.382-126.689,126.573c-24.962,24.939-49.924,49.878-74.887,74.818c-2.236,2.233-4.471,4.467-6.707,6.7    c-17.326,17.31-17.031,46.495,0.341,63.649C338.177,606.381,366.954,606.09,384.313,588.747L384.313,588.747z"></path></g></g></svg>