<svg height='100px' width='100px'  fill="#000000" xmlns="http://www.w3.org/2000/svg" data-name="Layer 1" viewBox="0 0 100 100" x="0px" y="0px"><title>A</title><path d="M38.60429,92.706a7.83382,7.83382,0,0,0,13.37265-5.5391V70.4012a7.83444,7.83444,0,0,0,10.35945-5.128,7.83331,7.83331,0,0,0,10.66608-5.001A7.833,7.833,0,0,0,83.97618,53.0964l-.001-18.41516A29.68106,29.68106,0,0,0,54.00869,5.00136a30.11484,30.11484,0,0,0-25.401,14.80478L17.13052,39.16369A7.79376,7.79376,0,0,0,18.882,49.19989l.915.75587a7.87693,7.87693,0,0,0,10.60212-.57911l5.91117-6.07719V87.16694A7.78327,7.78327,0,0,0,38.60429,92.706ZM35.50405,36.95793,26.814,45.89152a2.83217,2.83217,0,0,1-3.83382.20874l-.91505-.75586a2.81869,2.81869,0,0,1-.63379-3.62991L32.90846,22.35694A25.08671,25.08671,0,0,1,54.05557,10.00139,24.53263,24.53263,0,0,1,72.255,17.75156a25.345,25.345,0,0,1,6.72026,17.44268l.00091,17.79083a2.90766,2.90766,0,0,1-2.26838,2.88949A2.83787,2.83787,0,0,1,73.3096,53.0964V47.50847a2.5,2.5,0,0,0-5,0l.00006,10.47706a2.90848,2.90848,0,0,1-2.2679,2.88991,2.83761,2.83761,0,0,1-3.39821-2.778V47.50847a2.5,2.5,0,0,0-5,0l.00006,15.4774a2.90909,2.90909,0,0,1-2.26808,2.89052,2.83759,2.83759,0,0,1-3.39852-2.778V47.50847a2.5,2.5,0,0,0-5,0L46.977,86.99842a2.971,2.971,0,0,1-2.905,3.00069,2.83246,2.83246,0,0,1-2.76161-2.83217V39.31616A3.38205,3.38205,0,0,0,35.50405,36.95793Z"></path></svg>