<?xml version="1.0" encoding="UTF-8"?><svg id="Layer_2" xmlns="http://www.w3.org/2000/svg" viewBox="0 0 551.82 378.78"><defs><style>.cls-1,.cls-2,.cls-3,.cls-4,.cls-5,.cls-6,.cls-7{stroke-miterlimit:10;}.cls-1,.cls-2,.cls-3,.cls-4,.cls-5,.cls-6,.cls-7,.cls-8{stroke:#000;stroke-width:3px;}.cls-2{fill:#a7c6d3;}.cls-2,.cls-3,.cls-4,.cls-7,.cls-8{stroke-linecap:round;}.cls-3{fill:#f3644a;}.cls-4{fill:#ffc0c0;}.cls-5{fill:#292929;}.cls-6{fill:#0ebdff;}.cls-7{fill:#f9cb3b;}.cls-8{fill:none;stroke-linejoin:round;}</style></defs><g id="Layer_2-2"><g><path class="cls-4" d="M150.74,256.92l49.04-18.01,14.51,39.69-19.35,8.01-44.2-29.69Z"/><path class="cls-2" d="M193.69,226.81c8.17,22.85,16.34,45.7,24.52,68.55,20.55,.33,38.14-.58,52.04-1.75,18.39-1.55,29.82-3.51,39.78-12.01,3.52-3.02,6.56-6.56,9.01-10.51-.21,69.51-.42,13.14-.63,82.65l198.15,8.8-14.26-68.68c8.82-5.25,23.62-15.76,34.53-34.15,17.36-29.27,15.6-62.84,7.88-85.19-21.26-61.52-102.58-80.79-149.37-81.44-22.71-.32-59.13-.83-90.45,25.52-42.67,35.9-41.25,92.55-40.91,100.95l-70.3,7.25Z"/><path class="cls-7" d="M370.58,100.22c5.47,28.01,14.38,55.24,26.52,81.06,9.55-26.78,13.89-55.15,12.76-83.57l-39.28,2.5Z"/><path class="cls-4" d="M453.68,277.69c-6.35,3.79-12.32,4.71-14.51,2.38-2.78-2.97,.96-10.8,4-14.64,11.67-14.69,42.34-7.4,47.49-6.12l7.23,20.21c1.69,4.71,3.37,9.41,5.05,14.12-3.58,2.07-7.6,3.29-11.73,3.57-2.62,.17-5.26-.06-7.82-.67-7.51,7.69-15.42,10.16-17.95,7.92-2.4-2.12-1.04-9.46,4-17.01-8.49,7.83-17.21,9.71-19.89,7.01-2.41-2.46-.8-9.65,4.13-16.76Z"/><path class="cls-8" d="M464.59,303.11c.38-6.05,2.44-11.88,5.93-16.83,2.17-3.03,4.85-5.65,7.92-7.76"/><path class="cls-8" d="M448.39,289.4c1.16-5.95,3.94-11.46,8.05-15.92,2.54-2.72,5.54-4.98,8.86-6.67"/><path class="cls-8" d="M393.79,357.22c-3.67-77.06-1.52-32.08-5.2-109.14"/><path class="cls-8" d="M390.79,213.24l-41.15-49.49c-2.29-2.76-2.57-6.67-.7-9.72l16.38-26.66-24.07,9.08c-1.23,.46-2.61-.16-3.07-1.39-.26-.68-.19-1.45,.19-2.07l21.82-36.03"/><path class="cls-8" d="M502.93,293.87c-6.84-19.26-13.68-38.53-20.52-57.79l-1.25-58.55"/><path class="cls-8" d="M301.9,195.42l19.26-4.88-2.12,80.56"/><path class="cls-3" d="M8.8,377.18c-2.37-5.68-15.45-38.52,.5-74.06,19.82-44.16,66.68-52.89,70.55-53.54,13.21-2.9,33.63-5.28,57.04,.5,41.5,10.24,64.49,39.28,71.89,48.87,16.51,21.42,23.38,43.23,26.44,57.58l-41.95,2.39L8.8,377.18Z"/><path class="cls-1" d="M144.92,189.05c1.06-3.4,1.51-6.95,1.32-10.51-.57-10.33-6.47-17.32-8.67-19.68l-8.34,13.68,15.69,16.51Z"/><path class="cls-4" d="M124.45,260.61l-1.4-20.12c1.72-.1,3.43-.41,5.08-.92,2.18-.67,4.24-1.67,6.11-2.96,3.42-2.5,5.09-6.06,6.33-9.46,3.71-10.16,6.64-27.07,3.58-42.91-.87-4.53-2.3-9.3-6.34-12.67-.96-.8-2-1.48-3.12-2.03l-45.51-1.13-25.45,28.52c-4,8.71-1.8,18.44,4.6,23.3s14.34,2.86,15.44,2.56c.06,11.3,.12,22.6,.17,33.89,12.16,7.49,27.11,8.93,40.48,3.9v.02Z"/><path class="cls-1" d="M137.56,158.84c-4.57-2.21-9.36-3.92-14.3-5.09-6.54-1.55-23.97-5.67-41.28,3.13-5.51,2.8-19.27,9.79-22.14,24.27-1.67,8.42,1.1,15.61,2.72,19.06,.85-1.75,2.1-3.26,3.66-4.42,5-3.65,12.6-2.76,17.51,1,4.77,3.66,5.78,9.1,6,10.64-.21-5.3-.42-10.59-.63-15.89,5.11-1.36,10.13-3.08,15.01-5.13,12-5.07,23.07-12.08,32.77-20.77,.23-2.26,.45-4.53,.67-6.8Z"/><path class="cls-8" d="M71.09,201.05l11.26,8.26-9.34,5.84"/><path class="cls-8" d="M139.48,195.82c-5.07-1.96-11.57-1.19-12.19,4.05-.38,3.06,1.53,7.13,2.73,9.24,.36,.61,.15,1.39-.45,1.74-.1,.06-.21,.11-.33,.13-1.82,.5-4.21,.93-5.84,1.5"/><path class="cls-8" d="M117.48,196.12c-2.01-.6-3.69-1.23-7.25-1.17-4.02,.06-6.23,.98-8.32,1.75"/><path class="cls-8" d="M112.6,221.55c3.42,5,15.39,5.07,19.46-.41"/><path class="cls-4" d="M199.17,241.9c-3.66,2.46-15.62,9.25-18.7,12.41-3,3.09-5.71,6.44-8.1,10.03-21.31,9.82-25.81,14.64-25.37,17.21,.27,1.58,2.43,2.41,3.92,3,4.94,1.9,9.03-.48,15.22-2.21,4.13-1.15,8.38-1.8,12.67-1.94l34.95,2.5-14.59-41.01Z"/><circle class="cls-5" cx="429.05" cy="45.67" r="19.02"/><path class="cls-1" d="M418.93,30.12l4.69,.42c1.15,3.8,1.42,7.82,.78,11.74-.85,5.08-3.17,9.8-6.67,13.58l-4.45-2.36c1.88-7.79,3.75-15.59,5.63-23.38Z"/><path class="cls-4" d="M371.41,103.97l-.53-18.53c-1.99-.77-3.89-1.73-5.68-2.88-19.02-12.21-17-40.53-16.69-44.96,.51-7.19,3.2-10.36,4.25-11.45,.73-.76,1.55-1.43,2.44-1.99l38.01-4.5,23.68,22.69c1.94,3.39,2.79,7.31,2.42,11.2-.18,1.74-.75,5.96-4.35,9.31-3.99,3.7-8.89,3.68-9.99,3.65,1.64,10.73,3.29,21.46,4.92,32.2-11.92,5.88-25.43,7.72-38.49,5.25v.02Z"/><path class="cls-5" d="M399.79,42.54c.44-.54,3.43-4.07,8.38-4.08,5.97,0,9.3,5.12,9.51,5.46,1.71-5.02,2.14-10.39,1.25-15.62-2.28-12.94-12.21-19.96-14.97-21.74-15.86-10.24-35.58-3.03-44.25,4.5-3.33,2.93-6.04,6.48-7.99,10.47-2.12,5.51-3.23,11.36-3.29,17.26,1.13-2.82,2.68-4.13,3.63-4.77s2.22-1.19,8.46-1.75c2.36-.21,4.33-.32,5.7-.38,.85,1.42,7.15,11.56,19.28,13.09,4.9,.57,9.86-.28,14.28-2.46Z"/><path class="cls-8" d="M412.03,44.84l-7,8.59,9.01,3.59"/><path class="cls-8" d="M351.56,45.8c2.21-1.72,4.9-2.7,7.7-2.8,3.44-.11,4.8,3.66,5.15,6.59,.38,3.05-.75,7-1.83,9.19-.5,1.02-.18,2.66,.96,2.69,1.79,.05,4.46-.41,5.57-.41"/><path class="cls-8" d="M371.54,42.99c2.1-1.08,4.4-1.72,6.76-1.88,2.63-.16,5.27,.28,7.71,1.28"/><path class="cls-8" d="M381.36,68.79c-8.67,7.9-16.94,4.23-19.64,3.12"/><path class="cls-8" d="M410.03,94.25c.45,9.9,.27,28.36-2.63,46.25-2.83,17.6-6.78,27.65-10.32,40.77-4.09,15.15-8.49,37.49-8.51,66.8,17.39-27.1,34.79-54.19,52.19-81.29,1.32-2.06,1.57-4.62,.67-6.89l-12.83-32.41,16.92,3.42c.91,.17,1.78-.43,1.95-1.34,.1-.53-.07-1.08-.45-1.47-9.9-10.05-18.53-23.31-28.43-33.36"/><path class="cls-8" d="M370.58,100.22c5.47,28.01,14.38,55.24,26.52,81.06"/><line class="cls-6" x1="61.74" y1="369.93" x2="54.18" y2="325.37"/><line class="cls-6" x1="167.91" y1="316.97" x2="180.36" y2="360.21"/></g></g></svg>