<svg xmlns="http://www.w3.org/2000/svg" viewBox="0 0 1772.55 955.05"><defs><style>.cls-1{fill:#262439;}.cls-2{fill:none;stroke:#fff;stroke-miterlimit:10;stroke-width:7px;}.cls-3{fill:#f4ce51;}</style></defs><g id="Layer_2" data-name="Layer 2"><g id="Layer_1-2" data-name="Layer 1"><rect class="cls-1" x="284.39" y="814.69" width="494.1" height="129.22" transform="translate(-39.32 25) rotate(-2.6)"/><rect class="cls-1" x="-16.98" y="311.73" width="494.1" height="129.22" transform="translate(-171.28 559.34) rotate(-83.07)"/><rect class="cls-1" x="39.85" y="549.53" width="91.08" height="348.27" transform="translate(-158.91 37.15) rotate(-12.86)"/><rect class="cls-1" x="1643.85" y="175.29" width="91.08" height="348.27" transform="translate(-35.4 384.74) rotate(-12.86)"/><rect class="cls-1" x="678.76" y="110.32" width="348.27" height="91.08" transform="translate(142.47 652.88) rotate(-45.33)"/><rect class="cls-1" x="1176.39" y="705.17" width="91.08" height="348.27" transform="translate(201.37 1985.99) rotate(-83.06)"/><rect class="cls-1" x="1360.39" y="579.07" width="384.76" height="100.63" transform="translate(897.95 2171.6) rotate(-89.06)"/><rect class="cls-1" x="-138.91" y="165.45" width="384.76" height="100.63" transform="translate(-163.14 265.68) rotate(-89.06)"/><rect class="cls-1" x="950.16" y="169.52" width="502.41" height="538.52"/><line class="cls-2" x1="214.26" y1="749.42" x2="53.47" y2="302.96"/><polygon class="cls-3" points="707.84 529.69 639.58 238.79 525.63 512.56 367.23 215.76 323.43 733.8 430.96 742.89 537.85 751.93 658.17 762.11 765.06 771.14 870.35 780.04 914.15 262.01 707.84 529.69"/><polygon class="cls-2" points="711.25 517.65 605.16 238.31 528.38 524.74 332.16 251.47 357.18 770.75 464.98 765.56 572.12 760.4 692.73 754.59 799.87 749.42 905.42 744.34 880.39 225.05 711.25 517.65"/><path class="cls-2" d="M893.35,576.7c143.36,110.06,348.42,83.12,458.48-60.24"/><path class="cls-2" d="M227.2,276.44A212.67,212.67,0,0,0,354.29,549.23"/><line class="cls-2" x1="401.34" y1="770.75" x2="388.24" y2="903.57"/><line class="cls-2" x1="781.16" y1="169.52" x2="829" y2="326.22"/><line class="cls-2" x1="887.68" y1="376.34" x2="1702.59" y2="302.96"/><line class="cls-2" x1="85.39" y1="845.89" x2="351.18" y2="646.19"/><line class="cls-2" x1="799.87" y1="749.42" x2="1221.94" y2="879.31"/><line class="cls-2" x1="1364.11" y1="333.44" x2="1552.77" y2="644.41"/></g></g></svg>