<?xml version="1.0" encoding="UTF-8"?><svg id="Layer_2" xmlns="http://www.w3.org/2000/svg" viewBox="0 0 784.86 851.2"><defs><style>.cls-1,.cls-2,.cls-3{fill:none;}.cls-1,.cls-2,.cls-4,.cls-5,.cls-6,.cls-7,.cls-8,.cls-9,.cls-10,.cls-11,.cls-12,.cls-13,.cls-14,.cls-15,.cls-16{stroke-width:3px;}.cls-1,.cls-2,.cls-4,.cls-6,.cls-7,.cls-8,.cls-9,.cls-10,.cls-11,.cls-12,.cls-13,.cls-14,.cls-15,.cls-16{stroke-miterlimit:10;}.cls-1,.cls-2,.cls-4,.cls-6,.cls-7,.cls-9,.cls-11,.cls-12,.cls-13,.cls-14,.cls-15,.cls-16{stroke:#000;}.cls-1,.cls-6,.cls-16{stroke-linecap:round;}.cls-3,.cls-5,.cls-8,.cls-17,.cls-18{stroke:#263238;}.cls-3,.cls-5,.cls-17,.cls-18{stroke-linejoin:round;}.cls-19,.cls-14{fill:#f9cb3b;}.cls-20,.cls-15{fill:#f7bfba;}.cls-21{fill:#ffd0ca;}.cls-22{fill:#fceda4;}.cls-23{fill:#83ba7b;}.cls-24,.cls-7{fill:#a7c6d3;}.cls-5,.cls-18{fill:#263238;}.cls-6{fill:#ffc0c0;}.cls-8{fill:#a7c6d4;}.cls-9{fill:#c1c1c1;}.cls-10{fill:#2a1649;stroke:#2a1649;}.cls-11{fill:#fff;}.cls-12{fill:#f3644a;}.cls-13{fill:#eef3f6;}.cls-17{fill:#b2b2b2;}.cls-16{fill:#104fc1;}</style></defs><g id="Layer_1-2"><g><path class="cls-22" d="M23.65,633.77c-12.93,14.78-21.16,33.6-23.22,53.13-.98,9.25-.52,18.98,3.72,27.25,4.52,8.83,12.91,15.13,21.9,19.33,27.47,12.84,59.63,7.94,89.33,1.85,29.71-6.09,60.96-13.04,89.82-3.72,11.17,3.61,21.54,9.56,32.96,12.27,9.72,2.31,19.82,2.18,29.81,2.04,11.26-.16,23.7-.78,31.78-8.63,10.51-10.21,8.56-27.42,4.72-41.56-4.13-15.2-9.55-30.04-16.18-44.32-9.86-21.23-22.76-42.95-20.23-66.21,2.35-21.62,17.64-39.54,24.09-60.3,4.02-12.96,4.49-27,1.33-40.19-2.89-12.09-7.79-23.04-4.45-35.54,3.05-11.43,12.58-18.8,16.53-29.74,4.78-13.23-4.07-28.86-17.11-34.12-13.04-5.26-28.49-1.53-39.81,6.83-11.31,8.36-19.04,20.72-24.89,33.51-4.47,9.77-8.04,20.01-13.67,29.16-5.63,9.15-13.77,17.35-24.12,20.23-24.77,6.9-63.37-26.24-79.61,4.09-6.52,12.18-7.22,27.14-11.82,40.02-5.94,16.63-19.85,21.86-35.91,26.19-13.12,3.54-27.87,8.75-32.91,21.37-4.34,10.87,.27,22.96,3.2,34.29,2.93,11.33,3.07,25.65-6.65,32.16"/><path class="cls-24" d="M645.12,650.85c-17.38-3.59-30.53-17.25-44.47-28.25-15.81-12.47-34.47-22.29-54.55-23.79s-41.6,6.59-52.54,23.49c-7.8,12.04-9.81,27.41-18.92,38.5-4.71,5.74-11.01,9.91-16.64,14.74-16.68,14.31-27.72,35.04-30.27,56.87-.51,4.32-.75,8.85-2.97,12.58-2.49,4.18-7.06,6.65-11.58,8.46-9.35,3.75-19.46,5.59-29.53,5.37-13.32-.29-30.79-1.91-35.81,10.44-3.34,8.2,1.84,17.24,7.19,24.29,13.32,17.57,29.1,33.27,46.74,46.49,6.33,4.74,13.15,9.28,20.93,10.67,6.26,1.12,12.69,.11,18.94-1.01,29.06-5.21,57.66-12.97,85.37-23.15,20.82-7.65,42.31-16.84,64.33-14.14,30.05,3.69,54.53,28.88,84.73,31.02,21.97,1.56,43.77-10.17,56.81-27.92,13.04-17.75,17.8-40.75,15.67-62.67-1.01-10.39-3.58-20.86-9.3-29.59-17.41-26.6-57.32-29.3-77.24-54.08-6.86-8.54-12.73-20.43-23.67-21.16"/><path class="cls-21" d="M497.48,339.77c-13.22-6.18-26.77-12.39-41.29-13.87-14.52-1.48-30.41,2.58-39.65,13.88-8.25,10.1-9.85,23.85-12.83,36.54-2.99,12.69-9.01,26.39-21.24,30.91-12.68,4.69-26.88-2.39-40.22-.22-19.49,3.16-30.83,25.75-28.65,45.37,1.77,16,10.17,31.1,9.43,47.18-1.1,23.91-21.87,42.99-25.09,66.71-1.59,11.7,1.25,23.49,4.06,34.95,4.91,20,10.74,41.49,26.79,54.4,20.44,16.43,49.82,13.27,75.71,9.13,9.44-1.51,19.14-3.12,27.36-8.01,22.92-13.61,25.57-45.74,41.92-66.79,8.53-10.98,21.03-18.81,34.64-21.69,9.34-1.98,19-1.68,28.55-1.48,33.48,.72,66.98,.2,100.42-1.56,8.17-.43,16.53-.98,24.01-4.29,9.21-4.08,16.16-11.95,22.1-20.08,5.06-6.93,9.67-14.32,12.3-22.5,7.19-22.42-.88-49.18,12.04-68.86,10.2-15.53,31.54-22.94,37.18-40.64,3.25-10.18,.13-21.64-6.22-30.24-6.35-8.59-15.56-14.66-25.17-19.34-67.53-32.89-149.73-2.11-222.48-20.82"/><g><path class="cls-12" d="M604.95,749.87l-25.61-14.05-25.66-14c-.16-.11-.27-.22-.33-.38s-.05-.33,.05-.49l57.07-104.28,57.07-104.28,26.2,14.32,26.2,14.32-57.07,104.28-57.07,104.28c-.11,.16-.22,.27-.38,.33s-.33,.05-.49-.05Z"/><path class="cls-15" d="M616.35,605.94l-14.54,2.22-14.49,2.22c-2.01,.87-3.8,2.17-5.32,3.74-2.44,2.6-4.5,6.62-2.88,12.48-.87,.27-1.68,.71-2.44,1.25-2.98,2.06-4.5,5.7-3.8,9.28,.16,.92,.49,1.84,.87,2.66-1.09,.27-2.12,.71-3.04,1.36-.6,.38-1.09,.87-1.57,1.36-1.46,1.84-2.17,4.18-2.01,6.51,.16,2.77,1.03,5.48,2.6,7.81-.33,.27-.6,.6-.81,.98-.22,.33-.43,.65-.6,.98-1.84,3.69,.05,8.52,2.44,12.42,1.68,2.6,3.58,5.1,5.7,7.32l7.43-12.64c2.5-4.23,4.94-8.41,7.43-12.64l7.6,18.72,7.6,18.72c.71,1.46,1.74,2.66,3.04,3.64,1.46,1.14,3.31,1.95,5.21,1.79,1.14-.11,2.17-.49,3.09-1.14,.6-.38,1.09-.87,1.57-1.41,2.06-2.28,2.55-5.7,1.3-12.26s-4.07-16.17-8.73-30.82c0,0-.54-1.68-1.74-5.37s-3.04-9.49-5.64-17.58h0l5.86-10.8,5.86-10.8Z"/><polygon class="cls-4" points="549.83 787.85 558.67 781.83 567.57 775.86 559.27 770.65 550.92 765.39 550.37 776.62 549.83 787.85"/><path class="cls-14" d="M553.09,721.88l-1.09,21.76-1.09,21.76,8.3,5.21,8.3,5.21,18.83-12.75,18.83-12.7c.05-.05,.11-.11,.11-.22s-.05-.16-.11-.22l-25.82-14.11-25.88-14.11c-.11-.05-.27,0-.33,.11,0,0-.05,.05-.05,.05h0Z"/><polyline class="cls-1" points="579.07 626.61 585.2 639.95 591.28 653.35"/><path class="cls-14" d="M723.17,528.57c0,16.76-13.62,30.38-30.44,30.33-16.76,0-30.38-13.62-30.33-30.44,.05-16.82,13.62-30.38,30.44-30.33,8.03,0,15.79,3.2,21.48,8.9,5.64,5.75,8.84,13.51,8.84,21.54Z"/><path class="cls-16" d="M573.81,639.79l5.91,11.12,5.91,11.07"/><path class="cls-6" d="M569.63,656.99l5.32,7.6,5.26,7.6"/><path class="cls-15" d="M694.8,656.01c-3.8-3.47-10.63-8.46-17.47-13.45-6.84-4.99-13.73-9.98-17.47-13.45-3.31-3.36-8.14-4.72-12.75-3.58l-18.83,4.83-18.77,4.83c-.81,.22-1.57,.38-2.39,.54s-1.57,.38-2.39,.54c-2.12,.43-4.12,1.36-5.91,2.6-1.41,.98-2.39,2.44-2.77,4.12-.11,.54-.11,1.14-.05,1.68,.05,.27,.11,.6,.22,.87,.49,1.46,1.74,2.71,3.47,3.58,2.06,.98,4.29,1.46,6.56,1.46l1.19,.05,1.19,.05h.54l1.14,.05c6.4,.27,11.39,.49,15.3,1.19s6.67,1.84,8.68,3.96c.65,.6,1.09,1.41,1.36,2.28,.54,1.57,1.3,3.15,2.17,4.56,2.22,3.85,4.94,7.43,8.08,10.58l-9.22,18.39-9.22,18.39c1.25,.76,2.55,1.52,3.96,2.22s2.93,1.46,4.56,2.12c3.91,1.63,7.92,2.82,12.1,3.64,3.31,.65,6.67,1.03,10.04,1.14l18.39-31.63,18.28-31.58Z"/><path class="cls-1" d="M635.5,658.51c2.01,4.29,4.56,8.3,7.65,11.94,5.05,6.08,11.56,10.69,18.99,13.35,2.66,.92,5.43,1.57,8.19,1.95,2.28,.33,4.61,.43,6.94,.38"/><path class="cls-14" d="M399.3,719.28h103.59c5.73,13.65,12.66,26.78,20.69,39.24,12.92,19.91,30.95,40.44,51.54,42.73l-62.37,.31-62.37,.26s-9.59-6.46-20.74-20.01c-11.15-13.55-23.97-34.18-30.33-62.53Z"/><path class="cls-12" d="M393.93,737.68h92.02c5.05,10,10.63,19.7,16.73,29.08,9.85,15.01,22.62,30.9,34.39,34.5l-43.41,.26-43.41,.26s-7.87,.73-18.86-6.88c-10.99-7.61-25.01-23.66-37.47-57.22Z"/><path class="cls-15" d="M655.06,718.63l101,50s18-13,24-35,2-38,2-38l-87.26-39.62-3.12-2.66"/></g><g><g id="freepik--character-4--inject-2"><path class="cls-15" d="M160.07,559.69s-5.53,1.26-7.04,3.64-3.27,8.04-2.76,10.18,2.89,8.04,4.77,9.55,5.66,3.64,8.42,3.64,7.92-3.64,8.42-5.41,1.89-6.79,2.01-9.04,1.13-5.9-3.27-9.3-5.9-4.29-10.56-3.27Z"/><path class="cls-9" d="M171.88,581.29c.5-1.76,1.89-6.79,2.01-9.04,.09-1.71,.69-4.2-.92-6.78-.14,1.1-.75,3.95-1.72,5.15-1.13,1.38-6.16,4.02-12.7,2.64-4.7-.99-6.67-4-7.4-5.61-.72,2.26-1.18,4.64-.89,5.87,.5,2.13,2.89,8.04,4.77,9.55s5.66,3.64,8.42,3.64,7.92-3.64,8.42-5.41Z"/><path class="cls-15" d="M150.27,573.5s-1.64-.63-1.89,1,.76,5.04,2.14,5.78c.82,.44,1.81,.44,2.64,0l-2.89-6.79Z"/><path class="cls-15" d="M173.9,573.25s2.52-2.01,2.26,1.13-3.64,5.53-3.64,5.53l1.38-6.66Z"/><path class="cls-18" d="M175.63,590.72s-3.52-5.53-3.9-5.91-6.03-1.26-9.55-1.26-9.3,1.5-9.3,1.5l-3.01,6.29s14.1-3.64,25.76-.63Z"/><path class="cls-3" d="M132.56,628.66s-.99,5.15-.36,6.56,3.01,2.76,4.27,2.76c1.31-.11,2.62-.32,3.9-.63l.5-7.29-8.31-1.4Z"/><path class="cls-3" d="M191.61,624.77s.5,6.03,.13,7.04-2.52,2.89-4.02,3.27c-1.31,.35-2.66,.52-4.02,.5-.38-.13-1.64-9.05-1.64-9.05l9.55-1.76Z"/><path class="cls-5" d="M159.7,689.6s-.25,9.04,.38,9.93,3.64,2.01,6.92,1.63,4.65-1.38,4.65-2.01-.13-8.67-.13-8.67c0,0-10.19-.62-11.83-.87Z"/><path class="cls-14" d="M156.81,656.55s2.89,20.23,2.76,23c-.1,1.38-.06,2.77,.13,4.14,0,0-1.13,.63-1.13,1.64s1.13,4.27,1.13,4.27c0,0-.13,.5,3.15,1.13s7.79,.38,8.67-.25,.87-3.52,.75-5.4-1.63-5.78-1.63-7.29,2.01-22.49,2.01-22.49c0,0-11.31,2.13-15.84,1.25Z"/><path class="cls-18" d="M178.42,683.32s1.89,6.29,2.39,7.41,2.52,2.39,3.52,2.39,6.41-1.76,7.16-2.14,2.13-2.64,1.5-4.65-3.78-8.42-3.78-8.42l-10.79,5.41Z"/><path class="cls-14" d="M169.5,662.46s4.9,9.8,5.78,11.33,1.51,2.64,1.51,2.64c-.43,.65-.62,1.44-.53,2.22,.25,1.13,2.14,4.65,2.14,4.65,0,0,2.89,.63,5.15-.13s4.9-2.9,5.15-3.39c.22-.61,.39-1.25,.5-1.89-.42-1.67-.97-3.31-1.63-4.9-1.13-2.77-2.39-4.9-2.89-7.29s-3.27-12.59-3.27-12.59l-14.48,3.15,2.56,6.19Z"/><path class="cls-14" d="M138.21,642.23s-.63,4.41-.38,6.41,.63,4.52,6.92,6.92,12.59,4.02,17.62,3.64,14.33-2.64,16.36-3.64,3.68-2.91,5.04-4.22,1.74-6.08,1.49-7.97c-.13-1.07-.39-2.13-.76-3.15,0,0-21.17,5.53-46.31,2.01Z"/><path class="cls-8" d="M149.9,591.34s-6.03,5.53-8.81,7.67-5.53,4.78-5.53,5.53-7.41,23.5-7.41,23.5c0,0,2.89,3.64,9.18,4.27h1.8s-.88,9.05-.88,9.93,11.81,5.04,25.64,3.89,20.36-4.65,20.61-5.9-.25-3.78-.25-5.66-.38-5.53-.38-5.53c0,0,3.52,.38,6.16-.63s6.5-4.5,6.5-4.5c0,0-7.55-16.21-8.67-19.85s-12.22-13.32-12.22-13.32c0,0-10.28-3.27-25.73,.62Z"/></g><g id="freepik--character-3--inject-2"><path class="cls-15" d="M95.84,656.16s5.21,21.49,6.03,23.77,1.77,1.02,2.84,3.81,1.3,5.21,2.49,6.74,4.26,2.16,5.21,4.45,1.54,4.19-2.13,4.96-6.98-1.4-8.52-4.71-3.67-12.59-3.67-12.59c0,0-14.43-20.21-16.09-24.02l-1.66-3.81,15.5,1.4Z"/><path class="cls-18" d="M103.17,681.84l.35,.05c.57,.5,.98,1.16,1.18,1.89,1.07,2.8,1.3,5.21,2.49,6.74s4.26,2.16,5.21,4.45,1.54,4.19-2.13,4.96-6.98-1.4-8.52-4.71-3.67-12.59-3.67-12.59c2.25-3.59,5.09-.79,5.09-.79Z"/><path class="cls-15" d="M99.39,656.16s-5.21,21.49-6.04,23.77-1.77,1.02-2.84,3.81-1.3,5.21-2.49,6.74-4.26,2.16-5.21,4.45-1.54,4.19,2.13,4.96,6.98-1.4,8.52-4.71,3.66-12.59,3.66-12.59c0,0,14.44-20.21,16.09-24.02l1.66-3.81-15.5,1.4Z"/><path class="cls-18" d="M92.05,681.84l-.35,.05c-.57,.5-.98,1.16-1.18,1.89-1.06,2.8-1.3,5.21-2.49,6.74s-4.26,2.16-5.21,4.45-1.54,4.19,2.13,4.96,6.98-1.4,8.52-4.71,3.66-12.59,3.66-12.59c-2.25-3.59-5.09-.79-5.09-.79Z"/><path class="cls-14" d="M83.19,589.61s-7.55,3.2-7.69,4.61-4.98,20-5.32,22.12-2.37,7.22-.83,9.35,4.26,3.55,6.04,3.67c.93,.14,1.87-.22,2.48-.94l-1.54,10.41s-2.37,7.33-1.77,10.29,2.61,5.92,13.85,8.4c11.24,2.49,17.75,1.18,21.89-.71s9.11-4.26,9.58-7.22-1.42-12.3-1.42-12.3l-.95-10.07s5.66-.12,7.81-2.84,1.42-5.44,.59-7.8-3.31-11-4.14-14.08-1.42-8.4-2.37-9.7-10.53-3.43-10.53-3.43c0,0-12.31-4.59-25.68,.26Z"/><path class="cls-14" d="M119.86,649.59c.39-2.44-.83-9.26-1.26-11.54-14.09,3.95-34.03,1.36-42.17,0l-.11,.76s-2.37,7.33-1.77,10.29,2.61,5.92,13.85,8.4c11.24,2.49,17.75,1.18,21.89-.71s9.11-4.24,9.58-7.2Z"/><path class="cls-18" d="M91.47,556.6s-4.26-1.66-4.85,3.78,2.01,11.96,2.13,13.37-8.05,13.61-6.16,17.62,6.04,9.35,11.96,10.18c5.92,.83,10.53-.24,14.9-4.14s5.32-4.73,5.21-6.86-4.61-14.67-5.09-17.75,2.37-8.99-1.06-14.67-10.65-6.98-13.49-5.32-3.56,3.8-3.56,3.8Z"/><path class="cls-12" d="M49.88,611.97l4.32,28.79s98.77,5.09,190.74,0l7.41-28.37s-166.05,1.43-202.47-.42Z"/><path class="cls-17" d="M74.6,651.43s12.16,6.43,23.65,6.26c11.96-.18,21.26-6.36,21.26-6.36l.63,6.62s-20.77,8.68-45.72-.41l.18-6.11Z"/><rect class="cls-12" x="53.14" y="650.5" width="192.6" height="11.33"/><rect class="cls-12" x="60.69" y="641.06" width="3.78" height="9.44"/><rect class="cls-12" x="235.04" y="641.06" width="4.41" height="9.44"/><polygon class="cls-12" points="60.69 661.83 53.14 701.23 59.37 701.23 67.53 661.83 60.69 661.83"/><polygon class="cls-12" points="233.72 661.83 242.51 701.23 235.04 701.23 226.61 661.83 233.72 661.83"/></g></g><g><g><g><polygon class="cls-12" points="310.4 457.68 354.83 482.93 443.22 533.15 644.56 426.77 538.89 377.65 310.4 457.68"/><polyline class="cls-12" points="445.19 411.86 478.89 433.19 548.73 477.4"/><path class="cls-12" d="M506.65,429.99c14.82,10.13,1.36,21.64,1.36,21.64,0,0-13.23,10.74-29.12,1.63-15.25-13.13,12.94-33.39,27.76-23.26Z"/><path class="cls-12" d="M443.22,533.15s21.15-41.87-16.77-68.21c-37.92-26.34-116.05-7.26-116.05-7.26l132.82,75.47Z"/><path class="cls-12" d="M644.56,426.77s-91.2,4.45-114.19-10.38c-22.99-14.83,8.52-38.74,8.52-38.74l105.67,49.12Z"/></g><g><g><g><path d="M534.36,342.55c1.74-19.01,2.19-38.13,1.35-57.2l-1.5,1.5c23.89-.2,47.78-.07,71.67,.39,6.74,.13,13.48,.29,20.22,.47l-1.5-1.5c-1.01,18.76-.7,37.58,.94,56.29,.17,1.91,3.17,1.93,3,0-1.64-18.72-1.95-37.53-.94-56.29,.04-.83-.72-1.48-1.5-1.5-23.88-.64-47.77-.96-71.66-.94-6.74,0-13.49,.03-20.23,.09-.78,0-1.54,.68-1.5,1.5,.85,19.07,.4,38.19-1.35,57.2-.18,1.92,2.82,1.91,3,0h0Z"/><path class="cls-11" d="M476.88,374.38s59.07,18.86,103.93,17.12,100.77-17.12,100.77-17.12v-97.32s-50.65-47.55-100.77-46.92-102.55,48.06-102.55,48.06l-1.37,96.18Z"/><path class="cls-10" d="M525.52,348.81s-.96-7.01,4.68-6.26c5.64,.75,101.62,0,101.62,0,0,0,3.51-.9,3.66,4.4s-1.22,5.99-3.63,5.64c-2.02-.29-73.05-.04-95.7,.05-4.31,.02-6.87,.03-6.87,.03,0,0-3.77-.42-3.77-3.86Z"/><polygon class="cls-13" points="546.86 427.96 539.28 352.67 622.45 352.67 612.76 429.8 592.97 425.9 575.77 428.65 564.76 425.21 546.86 427.96"/><polyline class="cls-7" points="542.04 341.24 543.42 297.88 613.82 297.88 618.55 342.49"/></g><path d="M555.22,353.38c1.46,9.08,4.67,17.76,6.41,26.79,1.76,9.14,2.47,18.45,2.83,27.74,.2,5.29,.29,10.58,.37,15.87,.03,1.93,3.03,1.93,3,0-.15-9.45-.31-18.92-1.13-28.34s-2.43-18.41-4.9-27.42c-1.4-5.1-2.85-10.2-3.69-15.43-.31-1.9-3.2-1.09-2.89,.8h0Z"/><path d="M581.99,352.65c.06,19.24,.11,38.49,.17,57.73,.02,5.47,.03,10.95,.05,16.42,0,1.93,3.01,1.93,3,0-.06-19.24-.11-38.49-.17-57.73l-.05-16.42c0-1.93-3.01-1.93-3,0h0Z"/><path d="M607.25,352.7c-1.58,19.62-3,39.26-4.25,58.91-.36,5.61-.7,11.23-1.04,16.84-.11,1.93,2.89,1.92,3,0,1.16-19.65,2.49-39.3,3.97-58.93,.42-5.61,.86-11.22,1.31-16.82,.15-1.92-2.85-1.91-3,0h0Z"/><path d="M541.39,367.35c17.62,14.67,36.39,27.94,56.12,39.62,5.58,3.3,11.23,6.47,16.95,9.52,1.7,.91,3.22-1.68,1.51-2.59-20.06-10.68-39.26-22.94-57.37-36.66-5.12-3.88-10.15-7.89-15.09-12-1.47-1.23-3.61,.88-2.12,2.12h0Z"/><path d="M544.3,395.85c14.9,11.33,30.71,21.44,47.25,30.21,1.7,.9,3.22-1.68,1.51-2.59-16.54-8.77-32.35-18.88-47.25-30.21-1.54-1.17-3.03,1.44-1.51,2.59h0Z"/><path d="M560.13,354.66c13.86,9.69,28.08,18.87,42.64,27.48,4.12,2.44,8.27,4.83,12.44,7.18,1.68,.95,3.2-1.64,1.51-2.59-14.74-8.3-29.16-17.16-43.22-26.56-3.98-2.66-7.93-5.36-11.85-8.11-1.59-1.11-3.09,1.49-1.51,2.59h0Z"/><path d="M620.83,352.76c-20,12.19-40.09,24.22-60.28,36.11-5.69,3.35-11.38,6.68-17.08,10.01-1.67,.97-.16,3.57,1.51,2.59,20.23-11.8,40.38-23.75,60.43-35.85,5.65-3.41,11.29-6.83,16.92-10.26,1.65-1,.14-3.6-1.51-2.59h0Z"/><path d="M618.18,378.38c-9.78,6.37-19.55,12.74-29.33,19.11-8.83,5.76-17.62,11.76-27.22,16.18-5.31,2.45-10.88,4.31-16.65,5.29-1.9,.32-1.09,3.22,.8,2.89,10.34-1.77,19.89-6.39,28.82-11.73,9.61-5.74,18.87-12.08,28.25-18.18,5.62-3.66,11.23-7.32,16.85-10.98,1.61-1.05,.11-3.65-1.51-2.59h0Z"/><path d="M614.61,404.44c-13.41,8.89-27.86,16.16-43.02,21.57-1.81,.64-1.03,3.54,.8,2.89,15.4-5.5,30.11-12.83,43.73-21.87,1.6-1.06,.1-3.66-1.51-2.59h0Z"/><path d="M579.05,351.73c-10.67,10.47-23.78,18.28-38.07,22.66-1.84,.56-1.06,3.46,.8,2.89,14.79-4.53,28.36-12.6,39.4-23.43,1.38-1.35-.74-3.48-2.12-2.12h0Z"/></g><g><path class="cls-15" d="M715.5,125.33l24.56-88.7s-14-14-50.5-25.5-61.5-9.5-61.5-9.5l-25.84,68.49-21.35,29.81-21.35,29.82c-2.47,3.15-5,6.26-7.54,9.36s-5.1,6.17-7.66,9.25c-3.49,4.11-6.13,8.87-7.77,14-2.17,7.04-1.68,14.63,1.39,21.33l7.64,21.08,7.63,21.07c.91,2.59,2.08,5.08,3.51,7.42,9.34-2.63,18.34-.63,16.95-7.41l-1.3-14.38-1.31-14.38c-.27-3.03,.93-6.01,3.23-8l11.72-10.12,11.72-10.13c2.03-1.76,5.11-1.54,6.87,.5,.17,.2,.33,.42,.47,.64l9.46,15.44,9.45,15.44c.69,1.12,1.12,2.39,1.24,3.71,.12,1.32-.06,2.64-.52,3.88l-13.3,35.11-13.3,35.13c-.92,2.4-1.55,4.9-1.88,7.45-.36,2.54-.23,5.12,.41,7.61,.66,2.48,2.51,4.47,4.94,5.3,2.42,.82,5.07,.57,7.3-.69,2.69-1.63,4.98-3.83,6.7-6.46,1.85-2.6,3.45-5.43,5.17-7.89l4.95-7.49,4.94-7.48c1.73,1.71,3.69,3.18,5.81,4.38,3.54,2.05,7.58,3.06,11.67,2.92,1.39-.06,2.77-.26,4.12-.61,1.12-.27,2.21-.62,3.27-1.06,.81,1.02,1.75,1.92,2.8,2.68,1.88,1.39,4.08,2.27,6.4,2.55,3.79,.43,7.53-1.1,9.93-4.06l20.15-24.88,20.15-24.87c3.91-4.8,5.83-10.91,5.37-17.08l-.87-11.75c-.3-3.92-.59-7.84-.88-11.75l-1.51-30.09-1.54-30.09Z"/><polyline class="cls-15" points="630.63 269.07 641.24 250.1 651.85 231.14"/><polyline class="cls-15" points="655.5 274.65 669.9 250.53 684.3 226.41"/></g></g></g><g><path class="cls-12" d="M474.02,411.05c-4.51,15.98-21.11,25.28-37.09,20.77-15.98-4.51-25.28-21.11-20.77-37.09,4.51-15.98,21.11-25.28,37.09-20.77,7.67,2.16,14.17,7.29,18.07,14.24,3.91,6.95,4.88,15.18,2.7,22.85Z"/><path class="cls-12" d="M473.6,412.51s-8.48-16.57-25.23-21.29c-16.75-4.72-32.22,3.51-32.22,3.51"/><line class="cls-12" x1="416.62" y1="396.45" x2="473" y2="414.05"/><path class="cls-12" d="M472.1,416.07s-13.04,6.64-30.08,1.59-26.72-18.87-26.72-18.87"/></g></g><g><g><g><path class="cls-20" d="M303.63,299.64l-18.57,24.32-18.57,24.28c-.57,.84-1.16,1.66-1.79,2.46-1.22,1.56-2.54,3.03-3.96,4.41-3.35,3.18-7.67,5.86-11.45,3.85-1.36,1.82-2.97,3.42-4.8,4.75-2.9,2.09-6.81,3.52-10.83,1.06-1.14,1.21-2.5,2.19-4.02,2.87-2.43,1.07-5.69,1.4-9.06-1.58,0,0-1.05-.59-1.67-2.71-.61-2.12-.78-5.77,.98-11.85,.57-2.01,1.15-4.02,1.71-6.03,.57-2.02,1.11-4.02,1.63-6.04l.8-3.11,5.12-19.9,5.91-23c.47-1.78,.29-3.66-.51-5.32l-7.77-16.35-7.77-16.42c-1.17-2.84-4.43-4.2-7.28-3.03-2.28,.93-3.67,3.25-3.43,5.7l4.76,38.12c1.58,12.71,3.49,25.74,5.07,38.44,.06,.31-.02,.56-.21,.77-5.98-.7-12.02-.85-18.02-.42-1.52-.2-2.58-.33-2.84-.28-2.54-5.71-5.7-12.73-5.7-12.73l-7.61-17.14-11.51,10.42-33.42,32.21s-21.26-12.26-40.43-31.43c-19.18-19.18-25.42-46.42-25.42-46.42l59.06-54.91,20.35-16.18c6.94-5.53,14.62-10.07,22.81-13.48s16.84-5.6,25.66-6.49l.91-.09,.92-.07c9.25-.73,18.55,.66,27.18,4.08,8.64,3.41,16.42,8.69,22.78,15.46l23.83,25.3,23.85,25.27c2.75,2.91,5.08,6.19,6.91,9.76,1.82,3.57,3.08,7.4,3.73,11.35,.77,4.62,.69,9.35-.25,13.94-1.25,5.81-3.65,11.3-7.08,16.16Z"/><path class="cls-23" d="M264.17,442.86c12.9,8.69,20.38,24.79,18.7,40.25-1.06,9.61-5.75,19.14-13.85,24.44-8.09,5.3-19.7,5.48-27.03-.84-.03,8.47-5.38,16.47-12.78,20.58-7.4,4.12-16.53,4.57-24.65,2.14-4.74-1.42-9.26-3.82-12.76-7.33-7-7.04-9.13-17.79-8.05-27.66-5.41,4.04-11.76,7.02-18.48,7.64s-13.81-1.3-18.73-5.92c-5.7-5.34-7.89-13.74-6.88-21.48,1-7.74,4.87-14.88,9.73-20.99,3.3-4.16,7.12-7.96,11.6-10.82-7.5-.39-15.57-1-21.34-5.8-4.48-3.71-6.89-9.76-6.22-15.54,.63-5.42,3.96-10.43,8.67-13.17l-.39-.81c-1.66-.74-2.13-2.86-2.16-4.68-.16-8.42,4.57-16.59,11.55-21.31,6.98-4.72,15.94-6.12,24.21-4.53-4.87-6.51-6.41-15.37-4.03-23.14,2.39-7.77,8.64-14.24,16.32-16.9,2.96-1.02,6.08-1.49,9.2-1.82,1.03-.11,2.07-.2,3.1-.26,5.33,.71,16.31,2.34,18.02,.42,1.72,.2,3.44,.45,5.15,.74l.96,.25-.8,3.11c-.52,2.02-1.06,4.02-1.63,6.04-.56,2.01-1.14,4.02-1.71,6.03-1.76,6.08-1.59,9.73-.98,11.85,.62,2.12,1.67,2.71,1.67,2.71,3.37,2.98,6.63,2.65,9.06,1.58,1.52-.68,2.88-1.66,4.02-2.87,4.02,2.46,7.93,1.03,10.83-1.06,1.83-1.33,3.44-2.93,4.8-4.75,3.78,2.01,8.1-.67,11.45-3.85,1.42-1.38,2.74-2.85,3.96-4.41l.08,.06c4.62,3.18,6.6,9,7.46,14.54,.92,5.92,.89,12.06-.8,17.8-1.7,5.75-5.15,11.08-10.12,14.42,10.92,2.96,19.27,12.74,22.07,23.71,1.28,5.02,1.37,10.8-1.82,14.88-3.79,4.83-10.68,5.61-16.81,5.9l-.59,.85Z"/><path class="cls-20" d="M217.92,335.33c-1.71,1.92-12.69,.29-18.02-.42,6-.43,12.04-.28,18.02,.42Z"/></g><g><path class="cls-2" d="M217.92,335.33c.19-.21,.27-.46,.21-.77-1.58-12.7-3.49-25.73-5.07-38.44l-4.76-38.12c-.24-2.45,1.15-4.77,3.43-5.7,2.85-1.17,6.11,.19,7.28,3.03l7.77,16.42,7.77,16.35c.8,1.66,.98,3.54,.51,5.32l-5.91,23-5.12,19.9-.8,3.11c-.52,2.02-1.06,4.02-1.63,6.04-.56,2.01-1.14,4.02-1.71,6.03-1.76,6.08-1.59,9.73-.98,11.85,.62,2.12,1.67,2.71,1.67,2.71,3.37,2.98,6.63,2.65,9.06,1.58,1.52-.68,2.88-1.66,4.02-2.87,4.02,2.46,7.93,1.03,10.83-1.06,1.83-1.33,3.44-2.93,4.8-4.75,3.78,2.01,8.1-.67,11.45-3.85,1.42-1.38,2.74-2.85,3.96-4.41,.63-.8,1.22-1.62,1.79-2.46l18.57-24.28,18.57-24.32c3.43-4.86,5.83-10.35,7.08-16.16,.94-4.59,1.02-9.32,.25-13.94-.65-3.95-1.91-7.78-3.73-11.35-1.83-3.57-4.16-6.85-6.91-9.76l-23.85-25.27-23.83-25.3c-6.36-6.77-14.14-12.05-22.78-15.46-8.63-3.42-17.93-4.81-27.18-4.08l-.92,.07-.91,.09c-8.82,.89-17.47,3.08-25.66,6.49s-15.87,7.95-22.81,13.48l-20.35,16.18-59.06,54.91s6.24,27.24,25.42,46.42c19.17,19.17,40.43,31.43,40.43,31.43l33.42-32.21,11.51-10.42,7.61,17.14s3.16,7.02,5.7,12.73c.26-.05,1.32,.08,2.84,.28"/><polyline class="cls-2" points="179.43 296.23 181.58 300.47 183.72 304.71"/><line class="cls-2" x1="233.66" y1="364.77" x2="265.54" y2="287.78"/><polyline class="cls-2" points="249.29 358.96 267.93 327.92 286.57 296.87"/><path class="cls-1" d="M223.07,336.07c-1.71-.29-3.43-.54-5.15-.74-5.98-.7-12.02-.85-18.02-.42-1.03,.06-2.07,.15-3.1,.26-3.12,.33-6.24,.8-9.2,1.82-7.68,2.66-13.93,9.13-16.32,16.9-2.38,7.77-.84,16.63,4.03,23.14-8.27-1.59-17.23-.19-24.21,4.53-6.98,4.72-11.71,12.89-11.55,21.31,.03,1.82,.5,3.94,2.16,4.68"/><path class="cls-1" d="M264.78,350.76c4.62,3.18,6.6,9,7.46,14.54,.92,5.92,.89,12.06-.8,17.8-1.7,5.75-5.15,11.08-10.12,14.42,10.92,2.96,19.27,12.74,22.07,23.71,1.28,5.02,1.37,10.8-1.82,14.88-3.79,4.83-10.68,5.61-16.81,5.9"/><path class="cls-1" d="M264.02,442.76s.1,.07,.15,.1c12.9,8.69,20.38,24.79,18.7,40.25-1.06,9.61-5.75,19.14-13.85,24.44-8.09,5.3-19.7,5.48-27.03-.84-.03,8.47-5.38,16.47-12.78,20.58-7.4,4.12-16.53,4.57-24.65,2.14-4.74-1.42-9.26-3.82-12.76-7.33-7-7.04-9.13-17.79-8.05-27.66-5.41,4.04-11.76,7.02-18.48,7.64s-13.81-1.3-18.73-5.92c-5.7-5.34-7.89-13.74-6.88-21.48,1-7.74,4.87-14.88,9.73-20.99,3.3-4.16,7.12-7.96,11.6-10.82-7.5-.39-15.57-1-21.34-5.8-4.48-3.71-6.89-9.76-6.22-15.54,.63-5.42,3.96-10.43,8.67-13.17,.32-.19,.64-.36,.96-.52"/><path class="cls-1" d="M192.06,389.13c-5.28,4.84-7.07,12.79-5.4,19.75s6.41,12.92,12.2,17.14c2.81,2.04,5.92,3.74,9.29,4.61,10.42,2.68,22.34-4.13,25.33-14.46"/></g></g><g><path class="cls-19" d="M232.21,481.56c1.32,1.75,2.84,3.33,4.54,4.69l-.04,.06c-3.31,3.53-6.61,7.05-9.92,10.58-1.01,1.08-2.05,2.2-2.55,3.6-.49,1.33-.44,2.79-.39,4.21,.82,21.41,1.64,42.83,2.45,64.25,.22,5.54,.43,11.07,.64,16.6l-.04,1.02c-6.63-.3-13.3,.09-19.85,1.13,.21-29.14,1.77-58.27,4.66-87.26l.2-.13c-5.27-8.28-10.29-16.72-15.07-25.3,.51-.17,1.02-.35,1.52-.55,1.18-.47,2.33-1.01,3.43-1.62l1.92,.09c3.87,7.9,10.53,14.18,14.32,22.12,4.36-4.33,8.73-8.66,13.09-12.98l1.09-.51Z"/><g><path class="cls-2" d="M169.31,471.21c7.92,5.42,18.42,6.83,27.53,3.8,.51-.17,1.02-.35,1.52-.55,1.18-.47,2.33-1.01,3.43-1.62,7.76-4.27,13.63-11.95,15.55-20.61"/><path class="cls-2" d="M227.06,466.84c.04,5.31,1.96,10.49,5.15,14.72,1.32,1.75,2.84,3.33,4.54,4.69,2.42,1.95,5.19,3.45,8.18,4.34,5.39,1.6,11.81,1.1,15.81-2.84"/><path class="cls-2" d="M196.78,474.91s.04,.07,.06,.1c4.78,8.58,9.8,17.02,15.07,25.3,1.45,2.31,2.94,4.61,4.44,6.9"/><path class="cls-2" d="M203.71,472.93c3.87,7.9,10.53,14.18,14.32,22.12,4.36-4.33,8.73-8.66,13.09-12.98"/><path class="cls-2" d="M236.71,486.31c-3.31,3.53-6.61,7.05-9.92,10.58-1.01,1.08-2.05,2.2-2.55,3.6-.49,1.33-.44,2.79-.39,4.21,.82,21.41,1.64,42.83,2.45,64.25,.22,5.54,.43,11.07,.64,16.6"/><path class="cls-2" d="M211.71,500.44c-2.89,28.99-4.45,58.12-4.66,87.26,6.55-1.04,13.22-1.43,19.85-1.13,.1,0,.2,.01,.3,.01"/></g></g></g></g></g></svg>