<?xml version="1.0" encoding="UTF-8"?><svg id="Layer_2" xmlns="http://www.w3.org/2000/svg" viewBox="0 0 641.1 446.02"><defs><style>.cls-1,.cls-2,.cls-3,.cls-4,.cls-5,.cls-6,.cls-7,.cls-8,.cls-9,.cls-10,.cls-11,.cls-12{stroke-miterlimit:10;}.cls-1,.cls-2,.cls-3,.cls-4,.cls-5,.cls-6,.cls-7,.cls-8,.cls-9,.cls-10,.cls-11,.cls-12,.cls-13{stroke:#000;stroke-width:3px;}.cls-1,.cls-3,.cls-4,.cls-5,.cls-6,.cls-11,.cls-12,.cls-13{stroke-linecap:round;}.cls-1,.cls-13{fill:none;}.cls-3{fill:#a7c6d3;}.cls-4,.cls-8{fill:#f3644a;}.cls-5{fill:#ffc0c0;}.cls-6{fill:#fceda4;}.cls-7{fill:#292929;}.cls-9,.cls-11{fill:#f9cb3b;}.cls-10{fill:#f7bfba;}.cls-12{fill:#104fc1;}.cls-13{stroke-linejoin:round;}</style></defs><g id="Layer_2-2"><g><path class="cls-4" d="M401.4,91.52c-8.38,7.76-9.6,18.81-10.07,23.05-3.79,34.16,32.16,58.05,33.98,59.22l165.1,135.49,26.85-25.46-13.54-16.32c2.28,.46,4.51,1.13,6.67,1.98,4.92,1.96,9.41,4.87,13.21,8.56l15.55-16.89c-2.58-3.59-7.19-8.92-14.41-12.19-13.8-6.25-22.16,1.82-32.13-3.47-12.85-6.81-5.57-23.72-19.63-35.33-12.32-10.17-22.94-1.32-33.94-11.45-11.9-10.94-2.98-24.47-15.27-37.62-10.41-11.13-20.3-5.16-31.15-16.28-11.61-11.91-4.44-22.98-13.2-37.2-14.47-23.49-58.99-33.7-78.03-16.1Z"/><path class="cls-6" d="M243.41,330.95c4.74,25.16,9.48,50.33,14.22,75.49,11.71,3.62,37.29,9.69,67.3,1.41,51.76-14.27,74.38-59.54,77.98-67.05-.53,18.78-1.05,37.57-1.58,56.35,10.36,2.15,21.14,4.07,32.38,5.68,37.81,5.41,49.06,6.76,87.15,4.04-1.58-18.31-1.29-85.97-2.87-104.29,6.28,7.45,22.49,39.38,22.49,39.38l-18.08-1.23-5.1,52.93s85.7,16.4,97.13-12.26c-19.51-120.91-43.44-132-85.4-152.39-12.16-5.91-72.73-38.16-126.24-18.1-10.1,3.79-36.98,14.1-55.15,40.16-19.16,27.46-11.22,47.44-28.24,64.97-10.87,11.18-31.77,21.22-75.98,14.91Z"/><path class="cls-5" d="M408.13,99.26c-4.26,4.55-16.54,18.91-17.15,39.94-.17,6.03-.79,27.08,14.16,38.12,4.32,3.12,9.33,5.15,14.61,5.91l-3.11,39.03,12.56,24.65,36.56-25.75c-3.99-19.75-7.98-39.5-11.97-59.25,1.73,.17,9.48,.84,14.94-4.31,7.74-7.28,7.49-22.96-1.42-28.4-5.33-3.24-12.93-2.33-19.22,1.86-10-1.1-19.41-5.3-26.92-12.01-5.94-5.4-10.42-12.21-13.04-19.8Z"/><path class="cls-1" d="M396.84,132.36c1.89-.82,3.92-1.25,5.98-1.29,3.82,.01,7.52,1.34,10.48,3.77-.24,2.23-.72,4.44-1.43,6.57-1.19,3.57-3,6.91-5.34,9.86l5.91,3.39"/><path class="cls-1" d="M423.37,136.38c2.35-1.4,5-2.21,7.73-2.36,4.06-.17,8.04,1.08,11.28,3.53"/><path class="cls-1" d="M406.28,164.84c2.05,1.21,4.28,2.09,6.61,2.62,4.02,.9,8.2,.75,12.14-.44"/><path class="cls-1" d="M463.13,137.31l-10.32,8.23,9.69,6.23"/><path class="cls-1" d="M392.47,242.68c-2.86,11.14-4.96,22.46-6.29,33.88-2.55,21.86-.43,28.62,.6,31.44,3.93,10.69,11.68,17.43,16.67,20.99l-2.12,68.16"/><path class="cls-1" d="M429.05,248c-1.74,3.37-23.16,46.43-3.49,70.99,2.43,3.02,5.34,5.63,8.61,7.72-.66,13.62-.77,28.46,.01,44.33,.54,10.85,1.44,21.15,2.59,30.85"/><path class="cls-11" d="M429.21,246.92l18.65,18.79c16.72-17.44,30.74-37.28,41.59-58.87l-28.48-9.44c-2.48,5.38-5.34,11.02-8.68,16.82-6.65,11.6-14.38,22.55-23.08,32.7Z"/><path class="cls-11" d="M418.71,194.9l-19.99,15.4c-.67,17.84,2.92,35.59,10.47,51.77l20.01-15.15c-7.42-16.31-11.01-34.11-10.5-52.02Z"/><g><path class="cls-3" d="M336.75,254.29c-39.82-30.4-84.11-33.02-106.04-34.32-27.11-1.6-38.51-3.09-60.44,6.7-1.24,.75-106.11-145.12-106.11-145.12l-46.79,18.13,76.74,185.65s1.12,120.45,13.18,129.11l34.32-.38,83.86,.38h122.74c37.94,0,44.48-12.23,47.92-16.69,23.27-30.24-8.88-104.91-59.36-143.45Z"/><path class="cls-7" d="M187.02,158.66c-2.47-7.48-3.33-15.4-2.52-23.24,.37-3.48,.93-8.71,3.36-13.73,8.27-17.01,32.52-19.87,36.06-20.28,7.78-.93,26.13-3.07,39.57,10.25,13.1,12.98,11.81,31.04,11.55,33.94l-66.78,29.13-21.24-16.07Z"/><path class="cls-5" d="M204.33,185.86c-1.38,14.43-2.75,28.86-4.12,43.29,16.01,9.3,35.45,10.6,52.56,3.5,.14-9.62,.28-19.24,.41-28.85,3.65-1.2,11.21-4.27,16.08-11.75,2.78-4.29,3.66-8.43,4.33-13.4,2.36-17.55,5.56-41.61-8.55-52.54-2.2-1.7-4.04-2.49-6.49-3.52-15.36-6.49-36.83-4.12-44.93,8.04-1.72,2.57-2.32,5.08-3.51,10.1-2.25,9.52-2.81,19.35-1.65,29.06l-4.79,.16c.6-7.05-2.29-13.49-7.48-16.34-.98-.54-5.05-2.6-9.64-1.17-6.01,1.85-8.16,8.21-8.6,9.52-2.65,7.81,.43,18.58,8.86,23.29,7.93,4.43,16.33,1.11,17.52,.62Z"/><path class="cls-13" d="M266.53,140.33c-2.98-1.1-6.27-1.05-9.22,.16-2.16,.94-4.02,2.47-5.34,4.43,1.28,6.46,3.74,12.62,7.27,18.19l-6.7,5.26"/><path class="cls-13" d="M239.88,145.78c-6.48-3.52-14.54-2.06-19.37,3.51"/><path class="cls-13" d="M260.7,176c-1.79,1.77-6.49,5.93-13.48,6.65-2.69,.27-5.41,0-8-.77"/><path class="cls-13" d="M183.48,163.56l13.96,5.22-5.82,11.46"/><path class="cls-5" d="M337.27,266.05c-2.29-7.3-5.53-14.26-9.64-20.72-7.83-12.2-18.49-22.32-31.07-29.53-1.32-1.51-26.8-30.43-34.16-30.76-3.34-.15-5.1,1.39-5.1,1.39-1.74,1.52-1.95,3.85-2.01,4.48-.44,4.73,3.79,8.68,8.19,13.3,4.64,4.87,9.03,9.98,13.14,15.3-.57-.23-6.65-2.58-11.29,.77-3.53,2.56-4.1,6.89-4.48,9.74-.36,2.74-.15,5.53,.62,8.19-1.88,2.71-3.05,5.84-3.4,9.12-.88,8.94,4.97,18.14,14.68,23.8,3.49,1.91,7.34,1.98,9.83,.07,.91-.71,1.62-1.64,2.07-2.7,1.77,3.68,4.36,6.91,7.57,9.43,7.72,6.03,16.38,5.71,18.85,5.56l26.19-17.46Z"/><path class="cls-13" d="M262.82,185.09c-.46-.08-3.33-.55-5.52,1.34s-2.85,5.61-1.17,8.77l20.49,24.3c-1.33-.53-5.7-2.08-9.74-.13-5.38,2.61-8.28,10.58-5.42,18.83"/><path class="cls-13" d="M286.05,225.54c-2.78-2.53-5.97-4.57-9.43-6.03"/><path class="cls-13" d="M276.47,237.7c-.46-.32-5.97-4.17-11.44-1.85-4.67,1.97-6.03,7.04-6.47,8.74-3.16,11.88,9.02,22.72,10.74,24.27,1.59,1.48,3.49,2.57,5.56,3.2,1.68,.46,3.44,.57,5.16,.33"/><path class="cls-13" d="M270.49,251.61c3.87,5.68,8.52,10.78,13.81,15.15,1.25,3.57,3.29,6.81,5.97,9.48,8,7.88,18.75,7.38,20.81,7.25"/><path class="cls-13" d="M344.9,260.97l-63.8,42.48c6.15,11.34,13.4,23.52,21.95,36.17,8.35,12.33,16.69,23.34,24.73,33.08"/><path class="cls-5" d="M65.26,80.98c-5.66-13.08-10.96-25.45-16.25-37.82S38.43,18.42,32.76,5.34c-.15-.34-.32-.67-.52-.99-.2-.32-.42-.61-.68-.88-.95-1.02-2.21-1.69-3.59-1.9-1.19-.21-2.41,.07-3.4,.76-.78,.62-1.32,1.48-1.54,2.45-.26,1.09-.22,2.23,.1,3.3l3.86,13.19,3.86,13.2c-.72-.32-1.48-.54-2.27-.65-1.4-.24-2.84,0-4.1,.65-1.49,.85-2.6,2.22-3.11,3.86-.59,1.82-.56,3.78,.07,5.58-1-.96-2.26-1.63-3.62-1.91-1.28-.28-2.62-.15-3.83,.36-1.55,.71-2.76,2.01-3.36,3.61-.67,1.73-.68,3.64-.04,5.37-.76-.33-1.55-.56-2.37-.69-1.36-.25-2.76,0-3.95,.71-.22,.15-.43,.31-.63,.5-.39,.37-.73,.78-1.02,1.23-1.12,1.76-1.26,3.83-1.09,5.58,.14,1.28,.44,2.53,.89,3.73l7.32,19.5,7.32,19.5,24.07-10.22,24.09-10.21Z"/><path class="cls-1" d="M3.04,63.89c.87,1.29,1.76,2.57,2.66,3.84s1.81,2.54,2.73,3.79c.75,1.02,1.47,2.06,2.2,3.09s1.51,2.04,2.33,2.99c.82,.98,1.73,1.88,2.73,2.69,.97,.83,2.17,1.34,3.43,1.47,1.97,.09,3.72-1.25,4.14-3.18,.16-1.04,.06-2.09-.29-3.08-.31-1.05-.76-2.08-1.1-2.96-1.87-3.53-3.74-7.07-5.61-10.6l-5.61-10.6"/><path class="cls-1" d="M21.72,72.26c.8,1.65,1.94,3.1,3.35,4.27,1.21,.93,2.43,1.32,3.5,1.06,.48-.12,.92-.35,1.29-.68,.25-.22,.48-.46,.67-.73,1.08-1.39,1.26-3.24,1.11-5.06-.21-1.68-.6-3.32-1.15-4.92-1.42-4.42-3.12-8.8-4.75-12.71s-3.16-7.27-4.25-9.6"/><path class="cls-1" d="M31.58,69.35c.47,.86,1.05,1.65,1.72,2.36,1.02,1.07,2.46,2.1,4.19,2.05,.24,0,.48-.03,.71-.07,.35-.06,.68-.19,.99-.36,.94-.54,1.58-1.58,1.88-2.94,.3-1.61,.25-3.26-.17-4.84-1.67-5.18-3.34-10.36-5.02-15.54s-3.34-10.36-5.02-15.54"/><path class="cls-5" d="M50.53,46.69c-4.11,.28-8.23,.46-12.34,.6s-8.24,.21-12.35,.32c-1.83,.05-4.79-.13-7.35,.34s-4.71,1.6-4.9,4.24c-.17,2.29,.99,3.52,2.61,4.27s3.69,1.01,5.31,1.36c2.76,.59,4.84,1.03,6.3,1.4s2.32,.66,2.63,.95c1.41,1.22,1.67,2.77,1.77,4.76s.04,4.46,.73,7.52c.42,1.82,1.04,3.59,1.86,5.27,1.14,2.31,2.56,4.47,4.25,6.43"/></g><g><path class="cls-8" d="M413.6,406.43l-19.39-5.07-19.42-5.03c-.13-.05-.22-.1-.28-.2s-.09-.21-.05-.33l20.55-78.93,20.55-78.93,19.83,5.15,19.83,5.15-20.55,78.93-20.55,78.93c-.05,.13-.1,.22-.2,.28s-.21,.09-.33,.05Z"/><path class="cls-10" d="M397.12,308.74l-9.3,3.91-9.27,3.9c-1.19,.91-2.16,2.08-2.91,3.38-1.19,2.14-1.89,5.16,.17,8.78-.53,.33-1,.75-1.42,1.24-1.64,1.87-2.04,4.54-.98,6.81,.26,.59,.63,1.15,1.02,1.62-.68,.36-1.29,.82-1.8,1.41-.33,.35-.58,.76-.82,1.17-.67,1.47-.75,3.14-.25,4.67,.57,1.81,1.6,3.47,3.04,4.76-.17,.23-.3,.5-.38,.79-.09,.25-.18,.51-.23,.75-.61,2.76,1.46,5.66,3.7,7.86,1.55,1.45,3.24,2.8,5.02,3.92l2.83-9.65c.95-3.23,1.88-6.42,2.83-9.65l8.18,11.19,8.18,11.19c.71,.86,1.6,1.48,2.63,1.91,1.17,.51,2.53,.75,3.77,.32,.74-.26,1.36-.69,1.87-1.28,.33-.35,.58-.76,.81-1.2,.99-1.86,.74-4.22-1.18-8.38s-5.41-10.08-10.96-19.05c0,0-.64-1.03-2.05-3.28s-3.61-5.81-6.69-10.75h0l2.09-8.16,2.09-8.16Z"/><polygon class="cls-2" points="383.27 440.92 388.14 435.44 393.07 429.98 386.67 427.9 380.23 425.79 381.75 433.36 383.27 440.92"/><path class="cls-9" d="M374.4,396.47l2.91,14.66,2.91,14.66,6.39,2.08,6.39,2.08,10.4-11.63,10.41-11.6s.05-.09,.04-.16-.06-.1-.11-.13l-19.54-5.07-19.58-5.06c-.08-.02-.18,.05-.2,.13,0,0-.03,.05-.03,.05h0Z"/><polyline class="cls-1" points="375.77 328.73 382.08 336.59 388.37 344.49"/><path class="cls-9" d="M455.28,239.4c2.8,11.16-3.98,22.5-15.19,25.27-11.16,2.8-22.5-3.98-25.27-15.19s3.98-22.5,15.19-25.27c5.34-1.34,11.04-.51,15.78,2.33,4.72,2.88,8.14,7.51,9.49,12.86Z"/><path class="cls-12" d="M374.48,338.38l5.79,6.41,5.79,6.38"/><path class="cls-5" d="M374.57,350.53l4.81,4.17,4.77,4.18"/><path class="cls-10" d="M457.7,328.95c-3.11-1.68-8.49-3.85-13.87-6.03s-10.8-4.35-13.87-6.03c-2.76-1.69-6.2-1.78-9.08-.25l-11.72,6.36-11.69,6.35c-.51,.28-.98,.52-1.5,.76s-.98,.52-1.5,.76c-1.34,.64-2.52,1.59-3.5,2.72-.78,.89-1.18,2.02-1.15,3.21,.02,.38,.12,.78,.25,1.13,.08,.17,.17,.38,.29,.54,.57,.89,1.61,1.52,2.91,1.8,1.54,.31,3.1,.26,4.61-.12l.8-.16,.8-.16,.36-.09,.77-.15c4.31-.89,7.66-1.58,10.38-1.76s4.75,.11,6.44,1.18c.53,.29,.96,.76,1.28,1.29,.62,.96,1.39,1.88,2.21,2.67,2.12,2.19,4.53,4.12,7.15,5.69l-3.06,13.78-3.06,13.78c.96,.3,1.95,.58,3.01,.82s2.19,.49,3.39,.65c2.87,.43,5.74,.55,8.66,.4,2.31-.12,4.61-.43,6.87-.92l6.95-24.12,6.89-24.07Z"/><path class="cls-1" d="M418.66,340.53c2.05,2.52,4.42,4.76,7.09,6.66,4.37,3.2,9.48,5.18,14.87,5.71,1.92,.17,3.87,.14,5.78-.07,1.57-.16,3.14-.48,4.68-.91"/><path class="cls-9" d="M258.91,379.32h81.83c4.53,10.78,10,21.16,16.34,30.99,10.21,15.72,24.45,31.94,40.71,33.75l-49.27,.25-49.27,.21s-7.57-5.1-16.38-15.81c-8.81-10.7-18.93-27-23.96-49.39Z"/><path class="cls-8" d="M254.67,393.85h72.69c3.99,7.9,8.4,15.56,13.21,22.97,7.78,11.85,17.86,24.41,27.17,27.25l-34.29,.21-34.29,.21s-6.22,.58-14.9-5.43c-8.69-6.01-19.76-18.69-29.59-45.19Z"/><path class="cls-10" d="M441.72,377.27l75.57,16.39s9.81-11.66,10.12-27.3c.32-15.64-5.02-25.62-5.02-25.62l-64.69-11.78-2.52-1.25"/></g></g></g></svg>