<?xml version="1.0" encoding="UTF-8"?><svg id="Layer_2" xmlns="http://www.w3.org/2000/svg" viewBox="0 0 512.98 362.39"><defs><style>.cls-1{fill:#f7ce21;}.cls-1,.cls-2,.cls-3,.cls-4,.cls-5,.cls-6,.cls-7,.cls-8,.cls-9,.cls-10,.cls-11{stroke:#000;stroke-miterlimit:10;stroke-width:3px;}.cls-1,.cls-2,.cls-3,.cls-5,.cls-6,.cls-7,.cls-8,.cls-9,.cls-10,.cls-11{stroke-linecap:round;}.cls-2{fill:#f9851c;}.cls-3,.cls-4{fill:none;}.cls-12,.cls-11{fill:#f9cb3b;}.cls-13{fill:#83ba7b;}.cls-14{fill:#231f20;}.cls-6{fill:#a7c6d3;}.cls-7{fill:#f3644a;}.cls-8{fill:#ffc0c0;}.cls-9{fill:#ef3f3f;}.cls-10{fill:#fceda4;}</style></defs><g id="Layer_2-2"><g><g><g><g><path class="cls-13" d="M133.97,96.95l-.32-.66c-1.35-.6-1.73-2.32-1.75-3.79-.13-6.83,3.71-13.46,9.37-17.29s12.93-4.95,19.63-3.67c-3.95-5.28-5.2-12.47-3.27-18.77,1.94-6.29,7.01-11.55,13.23-13.7,2.4-.83,4.93-1.22,7.46-1.48,7.09-.73,24.65-6.43,55.12,12.64,3.75,2.57,5.36,7.3,6.06,11.79,.75,4.8,.72,9.78-.65,14.43-1.38,4.65-4.18,8.98-8.21,11.68,8.85,2.4,15.63,10.34,17.9,19.23,1.04,4.07,1.11,8.77-1.48,12.07-3.07,3.92-8.66,4.55-13.63,4.78l-.48,.69c10.46,7.04,16.53,20.1,15.16,32.63-.86,7.8-4.66,15.52-11.23,19.82-6.56,4.31-15.98,4.45-21.92-.68-.02,6.87-4.36,13.36-10.36,16.7-6,3.34-13.4,3.7-19.99,1.74-3.85-1.15-7.51-3.1-10.35-5.94-5.68-5.71-7.4-14.43-6.54-22.44-4.38,3.28-9.53,5.69-14.98,6.2-5.45,.5-11.2-1.05-15.19-4.8-4.62-4.33-6.4-11.14-5.58-17.42,.81-6.28,3.95-12.07,7.89-17.02,2.68-3.37,5.77-6.45,9.41-8.77-6.08-.32-12.63-.81-17.3-4.7-3.63-3.02-5.6-7.92-5.04-12.6,.51-4.4,3.21-8.47,7.03-10.68Z"/><g><path class="cls-3" d="M233.44,50.24c-30.47-19.07-48.03-13.37-55.12-12.64-2.53,.26-5.06,.65-7.46,1.48-6.23,2.15-11.3,7.4-13.23,13.7-1.93,6.3-.68,13.49,3.27,18.77-6.71-1.29-13.97-.16-19.63,3.67s-9.5,10.46-9.37,17.29c.02,1.48,.41,3.19,1.75,3.79"/><path class="cls-3" d="M233.44,50.24c3.75,2.57,5.36,7.3,6.06,11.79,.75,4.8,.72,9.78-.65,14.43-1.38,4.65-4.18,8.98-8.21,11.68,8.85,2.4,15.63,10.34,17.9,19.23,1.04,4.07,1.11,8.77-1.48,12.07-3.07,3.92-8.66,4.55-13.63,4.78"/><path class="cls-3" d="M232.84,124.84s.08,.06,.12,.08c10.46,7.04,16.53,20.1,15.16,32.63-.86,7.8-4.66,15.52-11.23,19.82-6.56,4.31-15.98,4.45-21.92-.68-.02,6.87-4.36,13.36-10.36,16.7-6,3.34-13.4,3.7-19.99,1.74-3.85-1.15-7.51-3.1-10.35-5.94-5.68-5.71-7.4-14.43-6.54-22.44-4.38,3.28-9.53,5.69-14.98,6.2-5.45,.5-11.2-1.05-15.19-4.8-4.62-4.33-6.4-11.14-5.58-17.42,.81-6.28,3.95-12.07,7.89-17.02,2.68-3.37,5.77-6.45,9.41-8.77-6.08-.32-12.63-.81-17.3-4.7-3.63-3.02-5.6-7.92-5.04-12.6,.51-4.4,3.21-8.47,7.03-10.68,.26-.15,.52-.29,.78-.42"/><path class="cls-3" d="M174.48,81.36c-4.27,3.92-5.72,10.37-4.37,16.02s5.2,10.48,9.89,13.89c2.28,1.66,4.8,3.04,7.53,3.74,8.45,2.18,18.12-3.34,20.54-11.72"/></g></g><g><path class="cls-12" d="M190.58,171.51c-4.27-6.72-8.34-13.56-12.22-20.52,.41-.14,.83-.28,1.23-.45,.96-.37,1.89-.82,2.78-1.31l1.56,.07c3.13,6.41,8.54,11.5,11.61,17.94,3.54-3.51,7.08-7.02,10.61-10.53l.88-.41c1.07,1.42,2.3,2.7,3.68,3.81l-.03,.04c-2.68,2.85-5.36,5.72-8.04,8.58-.82,.88-1.66,1.78-2.08,2.91-.39,1.09-.35,2.26-.31,3.41,.66,17.37,1.33,34.74,1.99,52.11,.17,4.48,.35,8.98,.52,13.46l-.02,.83c-5.38-.24-10.79,.06-16.1,.92,.17-23.63,1.44-47.25,3.78-70.76l.16-.11Z"/><g><path class="cls-4" d="M156.03,147.91c6.43,4.4,14.94,5.54,22.33,3.08,.41-.14,.83-.28,1.23-.45,.96-.37,1.89-.82,2.78-1.31,6.28-3.47,11.04-9.69,12.61-16.71"/><path class="cls-4" d="M202.86,144.36c.03,4.31,1.59,8.51,4.18,11.94,1.07,1.42,2.3,2.7,3.68,3.81,1.96,1.57,4.21,2.79,6.63,3.51,4.36,1.3,9.58,.89,12.82-2.31"/><path class="cls-4" d="M178.31,150.91s.03,.06,.05,.09c3.88,6.96,7.95,13.79,12.22,20.52,1.18,1.87,2.38,3.74,3.6,5.6"/><path class="cls-4" d="M183.93,149.31c3.13,6.41,8.54,11.5,11.61,17.94,3.54-3.51,7.08-7.02,10.61-10.53"/><path class="cls-4" d="M210.69,160.16c-2.68,2.85-5.36,5.72-8.04,8.58-.82,.88-1.66,1.78-2.08,2.91-.39,1.09-.35,2.26-.31,3.41,.66,17.37,1.33,34.74,1.99,52.11,.17,4.48,.35,8.98,.52,13.46"/><path class="cls-4" d="M190.42,171.62c-2.34,23.51-3.61,47.13-3.78,70.76,5.31-.85,10.73-1.16,16.1-.92,.08,0,.15,0,.24,0"/></g></g></g><g><path class="cls-13" d="M432.76,110.87c12.9,8.68,20.39,24.79,18.7,40.24-1.05,9.62-5.75,19.14-13.84,24.44-8.1,5.3-19.71,5.49-27.03-.84-.04,8.47-5.39,16.47-12.79,20.59s-16.53,4.56-24.64,2.13c-4.75-1.42-9.27-3.81-12.76-7.32-7.01-7.04-9.14-17.79-8.06-27.67-5.4,4.05-11.75,7.02-18.48,7.64-6.72,.62-13.81-1.29-18.73-5.91-5.7-5.34-7.89-13.74-6.88-21.48,1-7.75,4.87-14.88,9.73-21,3.3-4.16,7.12-7.96,11.6-10.82-7.5-.39-15.57-.99-21.34-5.79-4.47-3.72-6.89-9.77-6.22-15.54,.64-5.42,3.96-10.44,8.67-13.18l-.39-.8c-1.66-.74-2.13-2.86-2.16-4.68-.16-8.42,4.57-16.6,11.55-21.32s15.94-6.11,24.21-4.53c-4.87-6.5-6.41-15.37-4.02-23.14,2.38-7.77,8.63-14.24,16.32-16.89,2.96-1.02,6.08-1.5,9.19-1.82,8.74-.9,30.4-7.93,67.98,15.58,4.62,3.18,6.6,9.01,7.46,14.55,.93,5.92,.89,12.06-.8,17.8-1.7,5.74-5.15,11.07-10.12,14.41,10.93,2.96,19.27,12.75,22.07,23.71,1.28,5.02,1.37,10.81-1.82,14.89-3.79,4.83-10.68,5.61-16.81,5.9l-.59,.85Z"/><g><path class="cls-3" d="M433.37,18.76c-37.58-23.51-59.24-16.48-67.98-15.58-3.11,.32-6.23,.8-9.19,1.82-7.69,2.65-13.94,9.12-16.32,16.89-2.39,7.77-.85,16.64,4.02,23.14-8.27-1.58-17.23-.19-24.21,4.53s-11.71,12.9-11.55,21.32c.03,1.82,.5,3.94,2.16,4.68"/><path class="cls-3" d="M433.37,18.76c4.62,3.18,6.6,9.01,7.46,14.55,.93,5.92,.89,12.06-.8,17.8-1.7,5.74-5.15,11.07-10.12,14.41,10.93,2.96,19.27,12.75,22.07,23.71,1.28,5.02,1.37,10.81-1.82,14.89-3.79,4.83-10.68,5.61-16.81,5.9"/><path class="cls-3" d="M432.61,110.77s.1,.07,.15,.1c12.9,8.68,20.39,24.79,18.7,40.24-1.05,9.62-5.75,19.14-13.84,24.44-8.1,5.3-19.71,5.49-27.03-.84-.04,8.47-5.39,16.47-12.79,20.59s-16.53,4.56-24.64,2.13c-4.75-1.42-9.27-3.81-12.76-7.32-7.01-7.04-9.14-17.79-8.06-27.67-5.4,4.05-11.75,7.02-18.48,7.64-6.72,.62-13.81-1.29-18.73-5.91-5.7-5.34-7.89-13.74-6.88-21.48,1-7.75,4.87-14.88,9.73-21,3.3-4.16,7.12-7.96,11.6-10.82-7.5-.39-15.57-.99-21.34-5.79-4.47-3.72-6.89-9.77-6.22-15.54,.64-5.42,3.96-10.44,8.67-13.18,.31-.19,.63-.36,.96-.52"/><path class="cls-3" d="M360.65,57.13c-5.28,4.84-7.06,12.8-5.39,19.76s6.4,12.92,12.19,17.13c2.81,2.05,5.92,3.75,9.29,4.61,10.42,2.68,22.34-4.12,25.33-14.45"/></g></g><g><path class="cls-12" d="M380.5,168.32c-5.27-8.29-10.29-16.73-15.07-25.3,.51-.17,1.02-.35,1.52-.55,1.18-.46,2.32-1.01,3.43-1.62l1.92,.08c3.87,7.91,10.53,14.19,14.32,22.12,4.37-4.32,8.73-8.65,13.09-12.98l1.09-.51c1.32,1.75,2.85,3.33,4.55,4.69l-.05,.06c-3.3,3.53-6.61,7.06-9.92,10.59-1.01,1.08-2.05,2.2-2.55,3.59-.49,1.33-.44,2.79-.39,4.21l2.46,64.26c.21,5.53,.42,11.07,.63,16.6l-.03,1.02c-6.63-.3-13.31,.08-19.86,1.12,.21-29.13,1.77-58.26,4.66-87.25l.2-.13Z"/><g><path class="cls-4" d="M337.9,139.21c7.92,5.43,18.43,6.84,27.53,3.81,.51-.17,1.02-.35,1.52-.55,1.18-.46,2.32-1.01,3.43-1.62,7.76-4.28,13.62-11.95,15.55-20.61"/><path class="cls-4" d="M395.65,134.84c.05,5.31,1.97,10.49,5.15,14.72,1.32,1.75,2.85,3.33,4.55,4.69,2.42,1.95,5.19,3.45,8.17,4.34,5.39,1.61,11.81,1.1,15.82-2.84"/><path class="cls-4" d="M365.37,142.91s.04,.07,.06,.11c4.78,8.57,9.8,17.01,15.07,25.3,1.45,2.31,2.94,4.61,4.44,6.9"/><path class="cls-4" d="M372.3,140.93c3.87,7.91,10.53,14.19,14.32,22.12,4.37-4.32,8.73-8.65,13.09-12.98"/><path class="cls-4" d="M405.3,154.31c-3.3,3.53-6.61,7.06-9.92,10.59-1.01,1.08-2.05,2.2-2.55,3.59-.49,1.33-.44,2.79-.39,4.21l2.46,64.26c.21,5.53,.42,11.07,.63,16.6"/><path class="cls-4" d="M380.3,168.45c-2.89,28.99-4.45,58.12-4.66,87.25,6.55-1.04,13.23-1.42,19.86-1.12,.1,0,.19,.01,.29,.01"/></g></g></g><g><g><polyline class="cls-3" points="76.3 241.66 115.21 126.93 132.17 126.93 188.03 126.93 166.97 244.09"/><line class="cls-3" x1="121.07" y1="216.71" x2="132.17" y2="126.93"/><line class="cls-3" x1="143.14" y1="216.71" x2="151.12" y2="126.93"/><polygon class="cls-10" points="109.69 216.71 109.69 229.68 151.12 229.68 151.12 217.71 109.69 216.71"/><line class="cls-3" x1="208.21" y1="244.09" x2="188.03" y2="126.93"/></g><polygon class="cls-7" points="166.41 170.25 189.36 125.1 330.5 125.1 347.81 170.25 186.36 170.25 166.41 170.25"/><polygon class="cls-10" points="179.38 244.31 179.38 170.25 335.01 170.25 335.01 244.96 221.28 244.48 179.38 244.31"/><rect class="cls-11" x="221.28" y="193.67" width="35.83" height="50.29"/><polygon class="cls-6" points="284.13 191.07 284.13 216.7 318.05 216.7 318.05 190.43 284.13 191.07"/></g><g><path class="cls-7" d="M302,287.63l42.25-.18,42.24-.17c-.11-11.46-.78-21.63-1.72-30.18-.94-8.54-2.15-15.46-3.33-20.36-1.11-4.57-2.57-9.04-4.38-13.38-1.65-3.92-3.37-7.13-4.88-9.2-.11-.14-.32-.44-.63-.87s-.69-.98-1.13-1.63c-.75-1.15-1.68-2.64-2.64-4.39-1.1-1.99-2.08-4.05-2.94-6.15l-.03-.08-.03-.08c-1.48-3.6-2.76-7.28-3.85-11.02-1.03-3.52-1.81-6.87-2.42-9.99,.84-.28,1.61-.72,2.26-1.31,1.19-1.03,2.49-2.79,2.93-5.75,.15-1.04,.17-2.1,.06-3.15-.12-1.05-.35-2.08-.7-3.08-1.43-4.03-3.78-7.68-6.87-10.64-3.96-3.77-9.9-7.16-18.76-8.18-6.58-.68-13.23,.44-19.23,3.25-6.01,2.92-10.74,7.73-11.52,14.61-.11,1.02-.35,2.03-.69,3-.74,2.1-2.09,3.93-3.86,5.28-1.16,.87-2.47,1.53-3.86,1.95-.23,.07-.46,.13-.69,.18s-.47,.11-.7,.15c-1.07,.22-4.13,1.02-6.32,3.23s-3.5,5.84-1.06,11.73c.31,.82,.77,1.57,1.36,2.23,.93,1,2.35,1.77,4.32,.85,.38,1.03,.96,1.98,1.71,2.78,1.22,1.29,3.18,2.37,6.12,1.57l1.06-.29c.35-.09,.71-.18,1.06-.26l5.28-1.19,5.28-1.19c-.17,4.5-.31,7.96-.4,10.3s-.13,3.54-.13,3.54c-.22,.2-.49,.45-.8,.75s-.64,.67-.98,1.09c-.59,.75-1.12,1.55-1.57,2.39-1.11,1.97-1.91,4.11-2.36,6.32-.48,2.4-1.51,10.2-2.82,21.94-1.31,11.74-2.95,27.42-4.61,45.58Z"/><path class="cls-3" d="M295.15,194.29c1.39-.36,2.73-.9,3.97-1.62,2.73-1.46,4.9-3.78,6.2-6.59"/><path class="cls-9" d="M305.33,186.09c-.15,.33-.32,.69-.53,1.07-.23,.41-.48,.81-.75,1.19-.59,.84-1.27,1.61-2.04,2.29,.72,.56,1.48,1.04,2.3,1.45,.6,.3,1.21,.55,1.85,.75,.62,.22,1.26,.39,1.9,.49,.56,.09,1.14-.01,1.63-.3,.3-.2,.56-.45,.75-.75,.19-.27,.32-.58,.38-.91,.14-.85-.35-1.81-1.31-2.74-1.22-1.1-2.64-1.97-4.18-2.54Z"/><path class="cls-14" d="M316.64,169.56c0,1.08-.88,1.95-1.95,1.95s-1.95-.88-1.95-1.95c0-1.08,.88-1.95,1.95-1.95,.52,0,1.01,.21,1.38,.57,.36,.37,.57,.86,.57,1.38Z"/><path class="cls-3" d="M338.45,164.67c1.47,3.4,3.36,6.61,5.62,9.54,3.55,4.46,8.56,8.29,14.43,5.73"/><path class="cls-1" d="M342.57,211.77c4.76-1.02,9.32-2.77,13.54-5.19,3.03-1.74,5.87-3.8,8.45-6.16-.65-1.62-1.26-3.22-1.81-4.8-.55-1.58-1.06-3.13-1.51-4.65-2.07,2.28-4.39,4.32-6.91,6.08-8.54,6.02-19.05,8.57-29.4,7.13-3.26-.44-6.47-1.26-9.54-2.45-.09,2.19-.15,3.94-.2,5.22s-.08,2.1-.09,2.42c3.47,1.38,7.09,2.36,10.79,2.9,5.54,.83,11.19,.65,16.68-.51Z"/><path class="cls-3" d="M325.54,204.27l-.1,3.97-.11,3.96"/><path class="cls-3" d="M335.53,204.29l.25,4.2,.25,4.2"/><path class="cls-3" d="M344.5,202.45c.23,1.36,.46,2.71,.69,4.06,.23,1.35,.46,2.71,.69,4.06"/><path class="cls-3" d="M353.02,198.26l1.05,4.44,1.05,4.45"/><path class="cls-5" d="M290.54,186.28l2.61-1.33,2.61-1.33c1.03-.52,1.44-1.77,.92-2.8-.25-.49-.68-.86-1.2-1.03l-1.88-.64-1.88-.64c-2.41,1.69-3.74,4.52-3.51,7.45,.31,.28,.69,.46,1.09,.52,.42,.06,.86,0,1.24-.2Z"/><path class="cls-2" d="M366.6,287.3h-22.4l1.97-12.55,1.98-12.56c.41-2.87,1.73-5.53,3.77-7.58,1.87-1.88,4.41-2.95,7.06-2.97h0c3.44,0,6.46,1.83,8.47,4.65,2.13,3.09,2.98,6.9,2.37,10.6l-1.61,10.21-1.61,10.2Z"/><path class="cls-9" d="M332.89,176.61c-.51,2.08-2.61,3.35-4.69,2.83-2.08-.51-3.35-2.61-2.83-4.69s2.61-3.35,4.69-2.83c1,.25,1.85,.88,2.39,1.75,.53,.88,.7,1.94,.45,2.94Z"/></g><path class="cls-8" d="M462.16,205.36c-2.25-.26-4.49-.65-6.69-1.19-2.2-.54-4.36-1.22-6.47-2.06-1.21-.47-2.39-1.02-3.53-1.64-1.15-.64-2.25-1.36-3.29-2.17-5.75-4.46-10.29-10.07-14.54-15.93s-8.25-12-12.89-17.44c-3.36-3.96-9.3-4.45-13.26-1.09-1.71,1.45-2.85,3.47-3.21,5.69-.09,.56-.11,1.12-.08,1.68,.03,.56,.1,1.11,.21,1.66,1.44,7.08,3.07,14.64,4.75,22.32s3.4,15.5,5,23.08c2.02,9.45-3.55,18.86-12.8,21.64-14.28,4.27-30.44,8.62-47,12.64s-33.52,7.73-49.37,10.63c-1.84,.31-3.63,.81-5.36,1.51-2.33,.92-4.37,2.47-5.89,4.46-1.52,2.15-2.41,4.69-2.58,7.32-.15,2.11-.02,4.23,.38,6.31-2.4,.18-4.72,.97-6.73,2.29-1.88,1.23-3.34,3-4.2,5.07-.36,.88-.61,1.8-.73,2.74-.21,1.54-.04,3.11,.51,4.57,.88,2.16,2.47,3.97,4.51,5.11,2.27,1.29,4.85,1.95,7.47,1.9-1.48,1.19-2.61,2.75-3.28,4.52-.66,1.75-.83,3.65-.5,5.49,0,.13,.05,.26,.08,.39l.09,.37c.54,2.02,1.77,3.79,3.47,5,1.71,1.22,3.75,1.87,5.85,1.85h5.84l5.84-.05c-.61,1.42-1.02,2.92-1.24,4.45-.31,1.93,0,3.9,.87,5.65,1.21,2.04,3.14,3.57,5.4,4.29,1.95,.66,3.96,1.12,6,1.39,8.73,1.31,17.53,2.13,26.35,2.44,8.4,.36,15.75,.37,20,.35l54.18-.14,54.18-.14,20.92-.54,20.92-.55-6-64.76-6-64.76-18.59-2.14-18.59-2.21Z"/><g><path class="cls-8" d="M19.31,225.44l-17.66,6.19,8.42,64.49,8.42,64.49,20.53-4.08,20.52-4.09,52.88-11.81,52.88-11.81c4.15-.92,11.32-2.55,19.43-4.75,8.54-2.25,16.94-4.99,25.16-8.19,1.93-.71,3.79-1.61,5.55-2.68,2.05-1.2,3.59-3.11,4.32-5.37,.47-1.9,.33-3.89-.4-5.7-.55-1.45-1.28-2.81-2.19-4.07l5.71-1.24,5.7-1.29c2.05-.44,3.9-1.53,5.3-3.09,1.39-1.56,2.2-3.55,2.28-5.64v-.38c0-.13,.03-.27,0-.4-.08-1.87-.67-3.68-1.7-5.24-1.04-1.58-2.49-2.85-4.2-3.69,2.56-.53,4.93-1.74,6.87-3.5,1.74-1.57,2.89-3.67,3.27-5.98,.21-1.54,.04-3.11-.51-4.57-.33-.89-.77-1.73-1.32-2.51-1.29-1.83-3.11-3.24-5.21-4.02-2.25-.85-4.69-1.1-7.07-.75-.07-2.11-.41-4.21-1.02-6.24-.74-2.53-2.17-4.8-4.13-6.57-1.92-1.61-4.25-2.66-6.73-3.05-1.84-.3-3.7-.4-5.56-.29-16.1,.67-33.46,.79-50.5,.52-17.04-.27-33.76-.95-48.63-1.97-9.64-.67-17.15-8.63-17.26-18.29-.11-7.75-.16-15.75-.21-23.61s-.13-15.59-.29-22.82c0-.56-.06-1.12-.16-1.67-.09-.55-.24-1.1-.45-1.62-.84-2.09-2.39-3.81-4.38-4.85-4.61-2.4-10.29-.62-12.7,3.99-3.33,6.33-5.87,13.2-8.73,19.85-2.85,6.65-6.05,13.13-10.67,18.74-.83,1.02-1.75,1.97-2.73,2.84-.98,.85-2.01,1.65-3.08,2.38-1.87,1.28-3.83,2.43-5.86,3.44-2.03,1.01-4.12,1.89-6.26,2.64l-17.65,6.25Z"/><path class="cls-3" d="M137.59,261.69l44.35-2.96,44.36-2.96"/><polyline class="cls-3" points="139.05 286.24 184.66 281.66 230.26 277.1"/><polyline class="cls-3" points="144.01 308.19 180.58 303.1 217.16 298"/></g><path class="cls-3" d="M285.54,282.78l43.92-6.89,43.91-6.89"/><polyline class="cls-3" points="286.37 304.46 331.86 298.86 377.36 293.27"/><polyline class="cls-3" points="303.76 321.96 340.56 318.87 377.36 315.77"/></g></g></svg>