<svg xmlns="http://www.w3.org/2000/svg" viewBox="0 0 79.38 79.38"><defs><style>.cls-1{fill:#e26e53;}</style></defs><g id="Layer_2" data-name="Layer 2"><g id="Layer_1-2" data-name="Layer 1"><path class="cls-1" d="M39.69,0A39.69,39.69,0,1,0,79.38,39.69,39.74,39.74,0,0,0,39.69,0Zm0,73.13A33.44,33.44,0,1,1,73.13,39.69,33.48,33.48,0,0,1,39.69,73.13Z"/><path class="cls-1" d="M34.38,31.25a3.13,3.13,0,0,0-3.13-3.12H20a3.13,3.13,0,0,0,0,6.25H31.25A3.13,3.13,0,0,0,34.38,31.25Z"/><path class="cls-1" d="M59.37,28.13H48.13a3.13,3.13,0,1,0,0,6.25H59.38a3.13,3.13,0,1,0,0-6.25Z"/><path class="cls-1" d="M53.75,47.81H25.63a3.13,3.13,0,1,0,0,6.25H53.75a3.13,3.13,0,1,0,0-6.25Z"/></g></g></svg>