<svg xmlns="http://www.w3.org/2000/svg" fill="#60245e" viewBox="5 5 90 90">
  <path d="M35.95 33a4.89 4.89 0 0 0-4.85 4.85c0 2.65 2.2 4.85 4.85 4.85 2.65 0 4.85-2.2 4.85-4.85 0-2.65-2.2-4.85-4.85-4.85zm28.1 0a4.89 4.89 0 0 0-4.85 4.85c0 2.65 2.2 4.85 4.85 4.85 2.65 0 4.85-2.2 4.85-4.85 0-2.65-2.2-4.85-4.85-4.85z"/>
  <path d="M50 5C25.18 5 5 25.18 5 50s20.18 45 45 45 45-20.18 45-45S74.82 5 50 5zm0 5.46c21.87 0 39.54 17.67 39.54 39.54S71.87 89.54 50 89.54 10.46 71.87 10.46 50 28.13 10.46 50 10.46z"/>
  <path d="M50 56.72c-8.3.01-16.62 3.8-21.53 11.43-.96 1.5-.8 3.4.56 4.17 1.44.82 3.08.24 3.97-1.12 3.83-5.89 10.42-8.82 17-8.84 6.58-.02 13.17 2.92 17 8.8.89 1.37 2.53 1.98 3.97 1.16 1.36-.77 1.52-2.7.56-4.2C66.62 60.48 58.3 56.7 50 56.72z"/>
</svg>
