<svg height='100px' width='100px'  fill="#e26e53" xmlns="http://www.w3.org/2000/svg" xmlns:xlink="http://www.w3.org/1999/xlink" version="1.1" x="0px" y="0px" viewBox="0 0 16 16" style="enable-background:new 0 0 16 16;" xml:space="preserve"><path d="M8,1.65C4.499,1.65,1.65,4.499,1.65,8S4.499,14.35,8,14.35c3.501,0,6.35-2.849,6.35-6.35S11.501,1.65,8,1.65z M8,13.35  c-2.95,0-5.35-2.4-5.35-5.35S5.05,2.65,8,2.65s5.35,2.4,5.35,5.35S10.95,13.35,8,13.35z"></path><path d="M7.15,6.65c0-0.276-0.224-0.5-0.5-0.5h-1.8c-0.276,0-0.5,0.224-0.5,0.5s0.224,0.5,0.5,0.5h1.8  C6.926,7.15,7.15,6.926,7.15,6.65z"></path><path d="M11.15,6.15H9.35c-0.276,0-0.5,0.224-0.5,0.5s0.224,0.5,0.5,0.5h1.801c0.276,0,0.5-0.224,0.5-0.5S11.427,6.15,11.15,6.15z"></path><path d="M10.25,9.3h-4.5c-0.276,0-0.5,0.224-0.5,0.5s0.224,0.5,0.5,0.5h4.5c0.276,0,0.5-0.224,0.5-0.5S10.526,9.3,10.25,9.3z"></path></svg>