<svg xmlns="http://www.w3.org/2000/svg" viewBox="0 0 79.38 79.38">
   <ellipse cx="39.69" cy="39.69" fill="#f2cc59" rx="36.17" ry="35.26"/>
   <path fill="#e26e53" d="M39.69 0a39.69 39.69 0 1 0 39.69 39.69A39.74 39.74 0 0 0 39.69 0Zm0 73.13a33.44 33.44 0 1 1 33.44-33.44 33.48 33.48 0 0 1-33.44 33.44Z"/>
   <path fill="#e26e53" d="M34.38 31.25a3.13 3.13 0 0 0-3.13-3.12H20a3.13 3.13 0 0 0 0 6.25h11.25a3.13 3.13 0 0 0 3.13-3.13Zm24.99-3.12H48.13a3.13 3.13 0 1 0 0 6.25h11.25a3.13 3.13 0 1 0 0-6.25Zm-5.62 19.68H25.63a3.13 3.13 0 1 0 0 6.25h28.12a3.13 3.13 0 1 0 0-6.25Z"/>
 </svg>
