<?xml version="1.0" encoding="utf-8"?>
<!-- Generator: Adobe Illustrator 26.3.1, SVG Export Plug-In . SVG Version: 6.00 Build 0)  -->
<svg version="1.1" xmlns="http://www.w3.org/2000/svg" xmlns:xlink="http://www.w3.org/1999/xlink" x="0px" y="0px"
	 viewBox="0 0 100 100" style="enable-background:new 0 0 100 100;" xml:space="preserve">
<style type="text/css">
	.st0{fill:#27223A;}
</style>
<g id="Layer_2">
</g>
<g id="Layer_1">
	<g>
		<g>
			<path class="st0" d="M50,4.3C23.8,4.3,2.5,22.4,2.5,44.7c0,10.5,4.6,20.2,13,27.8C13.7,76.9,11,82.3,7.6,86
				c-1.6,1.7-1.9,4.2-0.9,6.3c1,2,3,3.3,5.2,3.3c0.1,0,0.2,0,0.3,0c13.2-0.7,22.5-6.4,28.2-11.4c3.2,0.6,6.5,0.9,9.6,0.9
				c26.2,0,47.5-18.1,47.5-40.4S76.2,4.3,50,4.3z M50,78.8c-3.2,0-6.5-0.3-9.9-1c-1-0.2-2.1,0.1-2.8,0.8c-4.6,4.4-12.5,9.7-24,10.7
				c4.1-5,7.2-11.7,9-16.6c0.5-1.3,0.1-2.7-1-3.6C13.3,62.6,8.8,54,8.8,44.7c0-18.8,18.5-34.1,41.2-34.1s41.2,15.3,41.2,34.1
				S72.7,78.8,50,78.8z"/>
			<path class="st0" d="M74.5,45.2l-2.2-14.4c-0.4-2.8-2.9-4.9-5.7-4.9h-8.5c-4.6,0-8.7,0.6-13.1,1.9v22.9c3.1,1.6,5.7,4,7.5,7
				c0.1,0.2,0.2,0.3,0.3,0.5c1.2,2,1.9,4.3,2.4,6.6v0.1c0.2,1.5,1.5,2.5,3,2.5c3,0,5.1-2.8,4.3-5.7L60,52.9
				c-0.2-0.5,0.2-1.1,0.8-1.1h8C72.3,51.8,75,48.7,74.5,45.2z"/>
			<path class="st0" d="M39.2,51V26.9c0-0.9-0.7-1.6-1.6-1.6h-9c-0.9,0-1.6,0.7-1.6,1.6V51c0,0.9,0.7,1.6,1.6,1.6h9
				C38.5,52.6,39.2,51.9,39.2,51z M35.6,31.1c0,1.3-1.1,2.4-2.4,2.4s-2.4-1.1-2.4-2.4c0-1.3,1.1-2.4,2.4-2.4S35.6,29.8,35.6,31.1z"
				/>
		</g>
	</g>
</g>
</svg>
