<svg height='100px' width='100px'  fill="#27223a" xmlns:x="http://ns.adobe.com/Extensibility/1.0/" xmlns:i="http://ns.adobe.com/AdobeIllustrator/10.0/" xmlns:graph="http://ns.adobe.com/Graphs/1.0/" xmlns="http://www.w3.org/2000/svg" xmlns:xlink="http://www.w3.org/1999/xlink" version="1.1" x="0px" y="0px" viewBox="0 0 100 100" style="enable-background:new 0 0 100 100;" xml:space="preserve"><g><g i:extraneous="self"><g><path d="M50,4.3C23.8,4.3,2.5,22.4,2.5,44.7c0,10.5,4.6,20.2,13,27.8C13.7,76.9,11,82.3,7.6,86c-1.6,1.7-1.9,4.2-0.9,6.3     c1,2,3,3.3,5.2,3.3c0.1,0,0.2,0,0.3,0c13.2-0.7,22.5-6.4,28.2-11.4c3.2,0.6,6.5,0.9,9.6,0.9c26.2,0,47.5-18.1,47.5-40.4     S76.2,4.3,50,4.3z M50,78.8c-3.2,0-6.5-0.3-9.9-1c-1-0.2-2.1,0.1-2.8,0.8c-4.6,4.4-12.5,9.7-24,10.7c4.1-5,7.2-11.7,9-16.6     c0.5-1.3,0.1-2.7-1-3.6c-8-6.5-12.5-15.1-12.5-24.4c0-18.8,18.5-34.1,41.2-34.1s41.2,15.3,41.2,34.1S72.7,78.8,50,78.8z"></path><path d="M68.8,37.9h-8c-0.6,0-1-0.6-0.8-1.1l2.5-8.8c0.8-2.9-1.3-5.7-4.3-5.7c-1.5,0-2.8,1-3,2.5l0,0.1c-0.5,2.3-1.2,4.6-2.4,6.6     c-0.1,0.2-0.2,0.3-0.3,0.5c-1.8,3-4.4,5.4-7.5,7v22.9c4.4,1.3,8.5,1.9,13.1,1.9h8.5c2.8,0,5.3-2.1,5.7-4.9l2.2-14.4     C75,41,72.3,37.9,68.8,37.9z"></path><path d="M37.6,37.1h-9c-0.9,0-1.6,0.7-1.6,1.6v24.1c0,0.9,0.7,1.6,1.6,1.6h9c0.9,0,1.6-0.7,1.6-1.6V38.7     C39.2,37.8,38.5,37.1,37.6,37.1z M33.2,61c-1.3,0-2.4-1.1-2.4-2.4c0-1.3,1.1-2.4,2.4-2.4s2.4,1.1,2.4,2.4     C35.6,59.9,34.5,61,33.2,61z"></path></g></g></g></svg>